/* XPM */
static char *result[] = {
/* columns rows colors chars-per-pixel */
"360 45 41 1 ",
"  c black",
". c gray6",
"X c #151515",
"o c #181818",
"O c #0D1225",
"+ c #151F3C",
"@ c gray14",
"# c #3D3933",
"$ c #6C1F00",
"% c #7D3C28",
"& c #1D2853",
"* c #1D2B53",
"= c #25376A",
"- c gray26",
"; c #4E4841",
": c #555048",
"> c #8A3C16",
", c #88412B",
"< c #94472F",
"1 c #AB5236",
"2 c #B7672F",
"3 c #C25D3E",
"4 c #BB6746",
"5 c #C97155",
"6 c #F7884B",
"7 c #FF964D",
"8 c #2D4381",
"9 c #007BC8",
"0 c #0084D7",
"q c #0AA1FF",
"w c #29ADFF",
"e c #A2A3A9",
"r c #B2B3B8",
"t c #BABBBF",
"y c #C59E8B",
"u c #FFBA8B",
"i c #FFCCAA",
"p c #C2C3C7",
"a c #D2D3D6",
"s c #D2D4D5",
"d c white",
/* pixels */
"$$$$$$$$$$$$$$$$$$$$$$$$$$$$$$$$$$$$$$$$$$$$$$$$$$$$$$$$$$$$$$$$$$$$$$$$$$$$$$$$$$$$$$$$$$$$$$$$$$$$$$$$$$$$$$$$$$$$$$$$$$$$$$$$$$$$$$$$$$$$$$$$$$$$$$$$$$$$$$$$$$$$$$$$$$$$$$$$$$$$$$$$$$$$$$$$$$$$$$$$$$$$$$$$$$$$$$$$$$$$$$$$$$$$$$$$$$$$$$$$$$$$$$$$$$$$$$$$$$$$$$$$$$$$$$$$$$$$$$$$$$$$$$$$$$$$$$$$$$$$$$$$$$$$$$$$$$$$$$$$$$$$$$$$$$$$$$$$$$$$$$$$$$$$$$$$$$$$$$$$",
"$66666666$66666666$66666666$6666666$66666666$$66666666$66666666$66666666$6666666$66666666$$66666666$66666666$66666666$6666666$66666666$$66666666$66666666$66666666$6666666$66666666$$66666666$66666666$66666666$6666666$66666666$$66666666$66666666$66666666$6666666$66666666$$66666666$66666666$66666666$6666666$66666666$$66666666$66666666$66666666$6666666$66666666$",
"$64444444$64444444$64444444$6444444$64444444$$64444444$64444444$64444444$6444444$64444444$$64444444$6444,,,111111111333333444$64444444$$64444444$64444444$64444444$6444444$64444444$$64444444$6444,,,111111111333333444$64444444$$64444444$64444444$64444444$6444444$64444444$$64444444$64444444$64444444$6444444$64444444$$64444444$64444444$64444444$6444444$64444444$",
"$64444444$6444,,,111111111333333444$64444444$$64444444$64444444$64444444$6444444$64444444$$64444444$6444,,,111111111333333444$64444444$$64444444$64444444$64444444$6444444$64444444$$64444444$6444,,,111111111333333444$64444444$$64444444$64444444$64444444$6444444$64444444$$64444444$64444444$64444444$6444444$64444444$$64444444$64444444$64444444$6444444$64444444$",
"$64444444$6444,,,111111111333333444$64444444$$64444444$64444444$64444444$6444444$64444444$$64444444$6444,,,111111111333333444$64444444$$64444444$64444444$64444444$6444444$64444444$$64444444$6444,,,111111111333333444$64444444$$64444444$64444444$64444444$6444444$64444444$$64444444$64444444$64444444$6444444$64444444$$64444444$64444444$64444444$6444444$64444444$",
"$6$$$$$$$$$$$$,,,111111111333333$$$$$$$$$$$4$$6$$$$$$$$$$$$,,,111111111333333$$$$$$$$$$$4$$6$$$$$$$$$%%%%%%<<<111111333333333$$$$$$$$4$$6$$$$$$$$$$$$,,,111111111333333$$$$$$$$$$$4$$6$$$$$$$$$%%%%%%<<<111111333333333$$$$$$$$4$$6$$$$$$$$$$$$,,,111111111333333$$$$$$$$$$$4$$6$$$$$$$$$$$$,,,111111111333333$$$$$$$$$$$4$$6$$$$$$$$$$$$,,,111111111333333$$$$$$$$$$$4$",
"$$666666666%%%%%%<<<11111133333333366666666$$$$666666666666,,,11111111133333366666666666$$$$666666666%%%%%%<<<11111133333333366666666$$$$666666666666,,,11111111133333366666666666$$$$666666666%%%%%%<<<11111133333333366666666$$$$666666666666,,,11111111133333366666666666$$$$666666666666,,,11111111133333366666666666$$$$666666666666,,,11111111133333366666666666$$",
"$$644444444%%%%%%<<<11111133333333344444444$$$$644444444444,,,11111111133333344444444444$$$$644444444%%%%%%<<<11111133333333344444444$$$$644444444444,,,11111111133333344444444444$$$$644444444%%%%%%<<<11111133333333344444444$$$$644444444444,,,11111111133333344444444444$$$$644444444444,,,11111111133333344444444444$$$$644444444444,,,11111111133333344444444444$$",
"$$644444444%%%%%%<<<11111133333333344444444$$$$644444444%%%%%%<<<11111133333333344444444$$$$644444444%%%%%%###;;;iii;;;:::55544444444$$$$644444444%%%%%%<<<11111133333333344444444$$$$644444444%%%%%%###;;;iii;;;:::55544444444$$$$644444444%%%%%%<<<11111133333333344444444$$$$644444444%%%%%%<<<11111133333333344444444$$$$644444444%%%%%%<<<11111133333333344444444$$",
"$$6444444yy%%%%%%###;;;iii;;;:::555yy444444$$$$6444444yy%%%%%%<<<111111333333333yy444444$$$$6444444yy%%%%%%###;;;iii;;;:::555yy444444$$$$6444444yy%%%%%%<<<111111333333333yy444444$$$$6444444yy%%%%%%###;;;iii;;;:::555yy444444$$$$6444444yy%%%%%%<<<111111333333333yy444444$$$$6444444yy%%%%%%<<<111111333333333yy444444$$$$6444444yy%%%%%%<<<111111333333333yy444444$$",
"$$6444444yy%%%%%%###;;;iii;;;:::555yy444444$$$$6444444yy%%%%%%<<<111111333333333yy444444$$$$6444444yy%%%%%%###;;;iii;;;:::555yy444444$$$$6444444yy%%%%%%<<<111111333333333yy444444$$$$6444444yy%%%%%%###;;;iii;;;:::555yy444444$$$$6444444yy%%%%%%<<<111111333333333yy444444$$$$6444444yy%%%%%%<<<111111333333333yy444444$$$$6444444yy%%%%%%<<<111111333333333yy444444$$",
"$$644444444%%%%%%###;;;iii;;;:::55544444444$$$$644444444%%%%%%###;;;iii;;;:::55544444444$$$$644444444%%%uuudddoooiiidddooo44444444444$$$$644444444%%%%%%###;;;iii;;;:::55544444444$$$$644444444%%%uuudddoooiiidddooo44444444444$$$$644444444%%%%%%###;;;iii;;;:::55544444444$$$$644444444%%%%%%iiiiiiiiiiiiiii55544444444$$$$644444444%%%%%%###;;;iii;;;:::55544444444$$",
"$$644444444%%%uuudddoooiiidddooo44444444444$$$$644444444%%%%%%###;;;iii;;;:::55544444444$$$$644444444%%%uuudddoooiiidddooo44444444444$$$$644444444%%%%%%###;;;iii;;;:::55544444444$$$$644444444%%%uuudddoooiiidddooo44444444444$$$$644444444%%%%%%###;;;iii;;;:::55544444444$$$$644444444%%%%%%iiiiiiiiiiiiiii55544444444$$$$644444444%%%%%%###;;;iii;;;:::55544444444$$",
"$$644444444%%%uuudddoooiiidddooo44444444444$$$$644444444%%%%%%###;;;iii;;;:::55544444444$$$$644444444%%%uuudddoooiiidddooo44444444444$$$$644444444%%%%%%###;;;iii;;;:::55544444444$$$$644444444%%%uuudddoooiiidddooo44444444444$$$$644444444%%%%%%###;;;iii;;;:::55544444444$$$$644444444%%%%%%iiiiiiiiiiiiiii55544444444$$$$644444444%%%%%%###;;;iii;;;:::55544444444$$",
"$>$$$$$$$$$%%%uuudddoooiiidddooo$$$$$$$$$$$>$$>$$$$$$$$$%%%uuudddoooiiidddooo$$$$$$$$$$$>$$>$$$$$$$$$%%%uuudddoooiiidddooo$$$$$$$$$$$>$$>$$$$$$$$$%%%uuudddoooiiidddooo$$$$$$$$$$$>$$>$$$$$$$$$%%%uuudddoooiiidddooo$$$$$$$$$$$>$$>$$$$$$$$$%%%uuudddoooiiidddooo$$$$$$$$$$$>$$>$$$$$$$$$%%%uuuiiiiiiiiiiiiiii$$$$$$$$$$$>$$>$$$$$$$$$%%%uuudddoooiiidddooo$$$$$$$$$$$>$",
"$6>>>>>>>>>%%%uuudddoooiiidddooo>>>>>>>>>>>4$$6>>>>>>>>>%%%uuudddoooiiidddooo>>>>>>>>>>>4$$6>>>>>>>>>%%%uuudddoooiiidddooo>>>>>>>>>>>4$$6>>>>>>>>>%%%uuudddoooiiidddooo>>>>>>>>>>>4$$6>>>>>>>>>%%%uuudddoooiiidddooo>>>>>>>>>>>4$$6>>>>>>>>>%%%uuudddoooiiidddooo>>>>>>>>>>>4$$6>>>>>>>>>%%%uuu###;;;iii;;;:::>>>>>>>>>>>4$$6>>>>>>>>>%%%uuudddoooiiidddooo>>>>>>>>>>>4$",
"$64444444$6%%%uuudddoooiiidddooo444$64444444$$64444444$6%%%uuudddoooiiidddooo444$64444444$$64444444$6%%%uuuiiiiiiiiiiiiiii444$64444444$$64444444$6%%%uuudddoooiiidddooo444$64444444$$64444444$6%%%uuuiiiiiiiiiiiiiii444$64444444$$64444444$6%%%uuudddoooiiidddooo444$64444444$$64444444$6%%%uuu###;;;iii;;;:::444$64444444$$64444444$6%%%uuudddoooiiidddooo444$64444444$",
"$64444444$6%%%uuuiiiiiiiiiiiiiii444$64444444$$64444444$6%%%uuudddoooiiidddooo444$64444444$$64444444$6eeetttuuuuuuiiiiiisss444$64444444$$64444444$6%%%uuudddoooiiidddooo444$64444444$$64444444$6eeetttuuuuuuiiiiiisss444$64444444$$64444444$6%%%uuudddoooiiidddooo444$64444444$$64444444$6%%%uuu###;;;iii;;;:::444$64444444$$64444444$6%%%uuudddoooiiidddooo444$64444444$",
"$64444444$6eeetttuuuuuuiiiiiisss444$64444444$$64444444$6%%%uuudddoooiiidddooo444$64444444$$64444444$6eeetttuuuuuuiiiiiisas444$64444444$$64444444$6%%%uuudddoooiiidddooo444$64444444$$64444444$6eeetttuuuuuuiiiiiisas444$64444444$$64444444$6%%%uuudddoooiiidddooo444$64444444$$64444444$6%%%uuuiiiiiiiiiiiiiii444$64444444$$64444444$6%%%uuudddoooiiidddooo444$64444444$",
"$64444444$6eeetttuuuuuuiiiiiisas444$64444444$$64444444$6%%%uuuiiiiiiiiiiiiiii444$64444444$$64444444$6eeetttuuuuuuiiiiiisss444$64444444$$64444444$6%%%uuuiiiiiiiiiiiiiii444$64444444$$64444444$6eeetttuuuuuuiiiiiisss444$64444444$$64444444$6%%%uuuiiiiiiiiiiiiiii444$64444444$$64444444$6%%%uuuiiiiiiiiiiiiiii444$64444444$$64444444$6%%%uuuiiiiiiiiiiiiiii444$64444444$",
"$64444444$6eeetttuuuuuuiiiiiisss444$64444444$$64444444$6eeetttuuuuuuiiiiiisss444$64444444$$64444444$9900qqqrrrpppaaaaaawww444$64444444$$64444444$6eeetttuuuuuuiiiiiisss444$64444444$$64444444$9900qqqrrrpppaaaaaawww444$64444444$$64444444$6eeetttuuuuuuiiiiiisss444$64444444$$64444444$6eeetttuuuuuuiiiiiisss444$64444444$$64444444$6eeetttuuuuuuiiiiiisss444$64444444$",
"$64444444$9900qqqrrrpppaaaaaawww444$64444444$$64444444$6eeetttuuuuuuiiiiiisas444$64444444$$64444444$9900qqqrrrpppaaaaaawww444$64444444$$64444444$6eeetttuuuuuuiiiiiisas444$64444444$$64444444$9900qqqrrrpppaaaaaawww444$64444444$$64444444$6eeetttuuuuuuiiiiiisas444$64444444$$64444444$6eeetttuuuuuuiiiiiisas444$64444444$$64444444$6eeetttuuuuuuiiiiiisas444$64444444$",
"$64444444$9900qqqrrrpppaaaaaawww444$64444444$$64444444$6eeetttuuuuuuiiiiiisss444$64444444$$64444444$9900qqqrrrpppaaaaaawww444$64444444$$64444444$6eeetttuuuuuuiiiiiisss444$64444444$$64444444$9900qqqrrrpppaaaaaawww444$64444444$$64444444$6eeetttuuuuuuiiiiiisss444$64444444$$64444444$6eeetttuuuuuuiiiiiisss444$64444444$$64444444$6eeetttuuuuuuiiiiiisss444$64444444$",
"$64444444$9900qqqrrrpppaaaaaawww444$64444444$$64444444$9900qqqrrrpppaaaaaawww444$64444444$$64444444$9900qqqqqqwwwwwwwwwwww444$64444444$$64444444$9900qqqrrrpppaaaaaawww444$64444444$$64444444$9900qqqqqqwwwwwwwwwwww444$64444444$$64444444$9900qqqrrrpppaaaaaawww444$64444444$$64444444$9900qqqrrrpppaaaaaawww444$64444444$$64444444$9900qqqrrrpppaaaaaawww444$64444444$",
"$64444444$9900qqqqqqwwwwwwwwwwww444$64444444$$64444444$9900qqqrrrpppaaaaaawww444$64444444$$64444444$9900qqqqqqwwwwwwwwwwww444$64444444$$64444444$9900qqqrrrpppaaaaaawww444$64444444$$64444444$9900qqqqqqwwwwwwwwwwww444$64444444$$64444444$9900qqqrrrpppaaaaaawww444$64444444$$64444444$9900qqqrrrpppaaaaaawww444$64444444$$64444444$9900qqqrrrpppaaaaaawww444$64444444$",
"$64444444$9900qqqqqqwwwwwwwwwwww444$64444444$$64444444$9900qqqrrrpppaaaaaawww444$64444444$$64444444$9900qqqqqqwwwwwwwwwwww444$64444444$$64444444$9900qqqrrrpppaaaaaawww444$64444444$$64444444$9900qqqqqqwwwwwwwwwwww444$64444444$$64444444$9900qqqrrrpppaaaaaawww444$64444444$$64444444$9900qqqrrrpppaaaaaawww444$64444444$$64444444$9900qqqrrrpppaaaaaawww444$64444444$",
"$64444444$9900qqqqqqwwwwwwwwwwww444$64444444$$64444444$9900qqqqqqwwwwwwwwwwww444$64444444$$64444444$9900qqqqqqqqqwwwwwwwww444$64444444$$64444444$9900qqqqqqwwwwwwwwwwww444$64444444$$64444444$9900qqqqqqqqqwwwwwwwww444$64444444$$64444444$9900qqqqqqwwwwwwwwwwww444$64444444$$64444444$9900qqqqqqwwwwwwwwwwww444$64444444$$64444444$9900qqqqqqwwwwwwwwwwww444$64444444$",
"$64444444$9900qqqqqqqqqwwwwwwwww444$64444444$$64444444$9900qqqqqqwwwwwwwwwwww444$64444444$$64444444$9900qqqqqqqqqwwwwwwwww444$64444444$$64444444$9900qqqqqqwwwwwwwwwwww444$64444444$$64444444$9900qqqqqqqqqwwwwwwwww444$64444444$$64444444$9900qqqqqqwwwwwwwwwwww444$64444444$$64444444$9900qqqqqqwwwwwwwwwwww444$64444444$$64444444$9900qqqqqqwwwwwwwwwwww444$64444444$",
"$64444444$9900qqqqqqqqqwwwwwwwww444$64444444$$64444444$9900qqqqqqwwwwwwwwwwww444$64444444$$64444444$9900qqqqqqqqqwwwwwwwww444$64444444$$64444444$9900qqqqqqwwwwwwwwwwww444$64444444$$64444444$9900qqqqqqqqqwwwwwwwww444$64444444$$64444444$9900qqqqqqwwwwwwwwwwww444$64444444$$64444444$9900qqqqqqwwwwwwwwwwww444$64444444$$64444444$9900qqqqqqwwwwwwwwwwww444$64444444$",
"$6$$$$$$$$9900qqqqqqqqqwwwwwwwww$$$$$$$$$$$4$$6$$$$$$$$9900qqqqqqqqqwwwwwwwww$$$$$$$$$$$4$$6$$$$$$$$2277&&&qqqqqqwwwwwwwww$$$$$$$$$$$4$$6$$$$$$$$9900qqqqqqqqqwwwwwwwww$$$$$$$$$$$4$$6$$$$$$$$2277&&&qqqqqqwwwwwwwww$$$$$$$$$$$4$$6$$$$$$$$9900qqqqqqqqqwwwwwwwww$$$$$$$$$$$4$$6$$$$$$$$9900qqqqqqqqqwwwwwwwww$$$$$$$$$$$4$$6$$$$$$$$9900qqqqqqqqqwwwwwwwww$$$$$$$$$$$4$",
"$$666666662277&&&qqqqqqwwwwwwwww66666666666$$$$666666669900qqqqqqqqqwwwwwwwww66666666666$$$$666666662277&&&qqqqqqwwwwwwwww66666666666$$$$666666669900qqqqqqqqqwwwwwwwww66666666666$$$$666666662277&&&qqqqqqwwwwwwwww66666666666$$$$666666669900qqqqqqqqqwwwwwwwww66666666666$$$$666666669900qqqqqqqqqwwwwwwwww66666666666$$$$666666669900qqqqqqqqqwwwwwwwww66666666666$$",
"$$644444442277&&&qqqqqqwwwwwwwww44444444444$$$$644444449900qqqqqqqqqwwwwwwwww44444444444$$$$644444442277&&&qqqqqqwwwwwwwww44444444444$$$$644444449900qqqqqqqqqwwwwwwwww44444444444$$$$644444442277&&&qqqqqqwwwwwwwww44444444444$$$$644444449900qqqqqqqqqwwwwwwwww44444444444$$$$644444449900qqqqqqqqqwwwwwwwww44444444444$$$$644444449900qqqqqqqqqwwwwwwwww44444444444$$",
"$$644444442277&&&qqqqqqwwwwwwwww44444444444$$$$644444442277&&&qqqqqqwwwwwwwww44444444444$$$$644444444OOO++++++******===88844444444444$$$$644444442277&&&qqqqqqwwwwwwwww44444444444$$$$644444444OOO++++++******===88844444444444$$$$644444442277&&&qqqqqqwwwwwwwww44444444444$$$$644444442277&&&qqqqqqwwwwwwwww44444444444$$$$644444442277&&&qqqqqqwwwwwwwww44444444444$$",
"$$6444444yyOOO++++++******===888444yy444444$$$$6444444y2277&&&qqqqqqwwwwwwwww444yy444444$$$$6444444yyOOO++++++******===888444yy444444$$$$6444444y2277&&&qqqqqqwwwwwwwww444yy444444$$$$6444444yyOOO++++++******===888444yy444444$$$$6444444y2277&&&qqqqqqwwwwwwwww444yy444444$$$$6444444y2277&&&qqqqqqwwwwwwwww444yy444444$$$$6444444y2277&&&qqqqqqwwwwwwwww444yy444444$$",
"$$6444444yyOOO++++++******===888444yy444444$$$$6444444y2277&&&qqqqqqwwwwwwwww444yy444444$$$$6444444yyOOO++++++******===888444yy444444$$$$6444444y2277&&&qqqqqqwwwwwwwww444yy444444$$$$6444444yyOOO++++++******===888444yy444444$$$$6444444y2277&&&qqqqqqwwwwwwwww444yy444444$$$$6444444y2277&&&qqqqqqwwwwwwwww444yy444444$$$$6444444y2277&&&qqqqqqwwwwwwwww444yy444444$$",
"$$644444444OOO++++++******===88844444444444$$$$644444444OOO++++++******===88844444444444$$$$644444444XXX@@@+++++++++***===44444444444$$$$644444444OOO++++++******===88844444444444$$$$644444444XXX@@@+++++++++***===44444444444$$$$644444444OOO++++++******===88844444444444$$$$644444444OOO++++++******===88844444444444$$$$644444444OOO++++++******===88844444444444$$",
"$$644444444XXX@@@+++++++++***===44444444444$$$$644444444OOO++++++******===88844444444444$$$$644444444XXX@@@+++++++++***===44444444444$$$$644444444OOO++++++******===88844444444444$$$$644444444XXX@@@+++++++++***===44444444444$$$$644444444OOO++++++******===88844444444444$$$$644444444OOO++++++******===88844444444444$$$$644444444OOO++++++******===88844444444444$$",
"$$644444444XXX@@@+++++++++***===44444444444$$$$644444444OOO++++++******===88844444444444$$$$644444444XXX@@@+++++++++***===44444444444$$$$644444444OOO++++++******===88844444444444$$$$644444444XXX@@@+++++++++***===44444444444$$$$644444444OOO++++++******===88844444444444$$$$644444444OOO++++++******===88844444444444$$$$644444444OOO++++++******===88844444444444$$",
"$>$$$$$$$$$XXX@@@+++++++++***===$$$$$$$$$$$>$$>$$$$$$$$$XXX@@@+++++++++***===$$$$$$$$$$$>$$>$$$$$$$$$XXX@@@$$$$$$$$$@@@---$$$$$$$$$$$>$$>$$$$$$$$$XXX@@@+++++++++***===$$$$$$$$$$$>$$>$$$$$$$$$XXX@@@$$$$$$$$$@@@---$$$$$$$$$$$>$$>$$$$$$$$$XXX@@@+++++++++***===$$$$$$$$$$$>$$>$$$$$$$$$XXX@@@+++++++++***===$$$$$$$$$$$>$$>$$$$$$$$$XXX@@@+++++++++***===$$$$$$$$$$$>$",
"$6>>>>>>>>>XXX@@@>>>>>>>>>@@@--->>>>>>>>>>>4$$6>>>>>>>>>XXX@@@+++++++++***===>>>>>>>>>>>4$$6>>>>>>>>>XXX@@@>>>>>>>>>@@@--->>>>>>>>>>>4$$6>>>>>>>>>XXX@@@+++++++++***===>>>>>>>>>>>4$$6>>>>>>>>>XXX@@@>>>>>>>>>@@@--->>>>>>>>>>>4$$6>>>>>>>>>XXX@@@+++++++++***===>>>>>>>>>>>4$$6>>>>>>>>>XXX@@@+++++++++***===>>>>>>>>>>>4$$6>>>>>>>>>XXX@@@+++++++++***===>>>>>>>>>>>4$",
"$64444444$6XXX@@@4$6444444@@@---444$64444444$$64444444$6XXX@@@+++++++++***===444$64444444$$64444444$6XXX@@@4$6444444@@@---444$64444444$$64444444$6XXX@@@+++++++++***===444$64444444$$64444444$6XXX@@@4$6444444@@@---444$64444444$$64444444$6XXX@@@+++++++++***===444$64444444$$64444444$6XXX@@@+++++++++***===444$64444444$$64444444$6XXX@@@+++++++++***===444$64444444$",
"$64444444$6XXX@@@4$6444444@@@---444$64444444$$64444444$6      4$6444444   ...444$64444444$$64444444$6      4$6444444   ...444$64444444$$64444444$6      4$6444444   ...444$64444444$$64444444$6      4$6444444   ...444$64444444$$64444444$6      4$6444444   ...444$64444444$$64444444$6      4$6444444   ...444$64444444$$64444444$6      4$6444444   ...444$64444444$",
"$64444444$6      4$6444444   ...444$64444444$$64444444$6      4$6444444   ...444$64444444$$64444444$6      4$6444444   ...444$64444444$$64444444$6      4$6444444   ...444$64444444$$64444444$6      4$6444444   ...444$64444444$$64444444$6      4$6444444   ...444$64444444$$64444444$6      4$6444444   ...444$64444444$$64444444$6      4$6444444   ...444$64444444$",
"$64444444$6      4$6444444   ...444$64444444$$64444444$6      4$6444444   ...444$64444444$$64444444$6      4$6444444   ...444$64444444$$64444444$6      4$6444444   ...444$64444444$$64444444$6      4$6444444   ...444$64444444$$64444444$6      4$6444444   ...444$64444444$$64444444$6      4$6444444   ...444$64444444$$64444444$6      4$6444444   ...444$64444444$",
"$$$$$$$$$$$      $$$$$$$$$   ...$$$$$$$$$$$$$$$$$$$$$$$$      $$$$$$$$$   ...$$$$$$$$$$$$$$$$$$$$$$$$      $$$$$$$$$   ...$$$$$$$$$$$$$$$$$$$$$$$$      $$$$$$$$$   ...$$$$$$$$$$$$$$$$$$$$$$$$      $$$$$$$$$   ...$$$$$$$$$$$$$$$$$$$$$$$$      $$$$$$$$$   ...$$$$$$$$$$$$$$$$$$$$$$$$      $$$$$$$$$   ...$$$$$$$$$$$$$$$$$$$$$$$$      $$$$$$$$$   ...$$$$$$$$$$$$$"
};
