/* XPM */
static char *result[] = {
/* columns rows colors chars-per-pixel */
"45 45 5 1 ",
"  c #6C1F00",
". c #8A3C16",
"X c #BB6746",
"o c #F7884B",
"O c #C59E8B",
/* pixels */
"                                             ",
" oooooooo oooooooo oooooooo ooooooo oooooooo ",
" oXXXXXXX oXXXXXXX oXXXXXXX oXXXXXX oXXXXXXX ",
" oXXXXXXX oXXXXXXX oXXXXXXX oXXXXXX oXXXXXXX ",
" oXXXXXXX oXXXXXXX oXXXXXXX oXXXXXX oXXXXXXX ",
" o                                         X ",
"  ooooooooooooooooooooooooooooooooooooooooo  ",
"  oXXXXXXXXXXXXXXXXXXXXXXXXXXXXXXXXXXXXXXXX  ",
"  oXXXXXXXXXXXXXXXXXXXXXXXXXXXXXXXXXXXXXXXX  ",
"  oXXXXXXOOXXXXXXXOOXXXXXXXOOXXXXXXOOXXXXXX  ",
"  oXXXXXXOOXXXXXXXOOXXXXXXXOOXXXXXXOOXXXXXX  ",
"  oXXXXXXXXXXXXXXXXXXXXXXXXXXXXXXXXXXXXXXXX  ",
"  oXXXXXXXXXXXXXXXXXXXXXXXXXXXXXXXXXXXXXXXX  ",
"  oXXXXXXXXXXXXXXXXXXXXXXXXXXXXXXXXXXXXXXXX  ",
" .                                         . ",
" o.........................................X ",
" oXXXXXXX oXXXXXXX oXXXXXXX oXXXXXX oXXXXXXX ",
" oXXXXXXX oXXXXXXX oXXXXXXX oXXXXXX oXXXXXXX ",
" oXXXXXXX oXXXXXXX oXXXXXXX oXXXXXX oXXXXXXX ",
" oXXXXXXX oXXXXXXX oXXXXXXX oXXXXXX oXXXXXXX ",
" oXXXXXXX oXXXXXXX oXXXXXXX oXXXXXX oXXXXXXX ",
" oXXXXXXX oXXXXXXX oXXXXXXX oXXXXXX oXXXXXXX ",
" oXXXXXXX oXXXXXXX oXXXXXXX oXXXXXX oXXXXXXX ",
" oXXXXXXX oXXXXXXX oXXXXXXX oXXXXXX oXXXXXXX ",
" oXXXXXXX oXXXXXXX oXXXXXXX oXXXXXX oXXXXXXX ",
" oXXXXXXX oXXXXXXX oXXXXXXX oXXXXXX oXXXXXXX ",
" oXXXXXXX oXXXXXXX oXXXXXXX oXXXXXX oXXXXXXX ",
" oXXXXXXX oXXXXXXX oXXXXXXX oXXXXXX oXXXXXXX ",
" oXXXXXXX oXXXXXXX oXXXXXXX oXXXXXX oXXXXXXX ",
" o                                         X ",
"  ooooooooooooooooooooooooooooooooooooooooo  ",
"  oXXXXXXXXXXXXXXXXXXXXXXXXXXXXXXXXXXXXXXXX  ",
"  oXXXXXXXXXXXXXXXXXXXXXXXXXXXXXXXXXXXXXXXX  ",
"  oXXXXXXOOXXXXXXXOOXXXXXXXOOXXXXXXOOXXXXXX  ",
"  oXXXXXXOOXXXXXXXOOXXXXXXXOOXXXXXXOOXXXXXX  ",
"  oXXXXXXXXXXXXXXXXXXXXXXXXXXXXXXXXXXXXXXXX  ",
"  oXXXXXXXXXXXXXXXXXXXXXXXXXXXXXXXXXXXXXXXX  ",
"  oXXXXXXXXXXXXXXXXXXXXXXXXXXXXXXXXXXXXXXXX  ",
" .                                         . ",
" o.........................................X ",
" oXXXXXXX oXXXXXXX oXXXXXXX oXXXXXX oXXXXXXX ",
" oXXXXXXX oXXXXXXX oXXXXXXX oXXXXXX oXXXXXXX ",
" oXXXXXXX oXXXXXXX oXXXXXXX oXXXXXX oXXXXXXX ",
" oXXXXXXX oXXXXXXX oXXXXXXX oXXXXXX oXXXXXXX ",
"                                             "
};
