/* XPM */
static char *_a3d1dbb946b4306bf2ada06afc1b12cF1viF6JHWNJcU4Bh[] = {
/* columns rows colors chars-per-pixel */
"45 45 36 1 ",
"  c black",
". c gray6",
"X c #151515",
"o c #181818",
"O c #0D1225",
"+ c #151F3C",
"@ c gray14",
"# c #3D3933",
"$ c #7D3C28",
"% c #1D2853",
"& c #25376A",
"* c gray26",
"= c #4E4841",
"- c #555048",
"; c #88412B",
": c #94472F",
"> c #AB5236",
", c #B7672F",
"< c #C25D3E",
"1 c #C97155",
"2 c #97B11C",
"3 c #FF964D",
"4 c #2D4381",
"5 c #007BC8",
"6 c #0084D7",
"7 c #0AA1FF",
"8 c #29ADFF",
"9 c #A2A3A9",
"0 c #B2B3B8",
"q c #BABBBF",
"w c #FFBA8B",
"e c #FFCCAA",
"r c #C2C3C7",
"t c #D2D3D6",
"y c #D2D4D5",
"u c white",
/* pixels */
"222222222222222222222222222222222222222222222",
"222222222222222222222222222222222222222222222",
"222222222222222222222222222222222222222222222",
"22222222222222;;;>>>>>>>>><<<<<<2222222222222",
"22222222222222;;;>>>>>>>>><<<<<<2222222222222",
"22222222222222;;;>>>>>>>>><<<<<<2222222222222",
"22222222222$$$$$$:::>>>>>><<<<<<<<<2222222222",
"22222222222$$$$$$:::>>>>>><<<<<<<<<2222222222",
"22222222222$$$$$$:::>>>>>><<<<<<<<<2222222222",
"22222222222$$$$$$###===eee===---1112222222222",
"22222222222$$$$$$###===eee===---1112222222222",
"22222222222$$$$$$###===eee===---1112222222222",
"22222222222$$$wwwuuuoooeeeuuuooo2222222222222",
"22222222222$$$wwwuuuoooeeeuuuooo2222222222222",
"22222222222$$$wwwuuuoooeeeuuuooo2222222222222",
"22222222222$$$wwwuuuoooeeeuuuooo2222222222222",
"22222222222$$$wwwuuuoooeeeuuuooo2222222222222",
"22222222222$$$wwweeeeeeeeeeeeeee2222222222222",
"22222222222999qqqwwwwwweeeeeeyyy2222222222222",
"22222222222999qqqwwwwwweeeeeeyty2222222222222",
"22222222222999qqqwwwwwweeeeeeyyy2222222222222",
"22222222225566777000rrrtttttt8882222222222222",
"22222222225566777000rrrtttttt8882222222222222",
"22222222225566777000rrrtttttt8882222222222222",
"222222222255667777778888888888882222222222222",
"222222222255667777778888888888882222222222222",
"222222222255667777778888888888882222222222222",
"222222222255667777777778888888882222222222222",
"222222222255667777777778888888882222222222222",
"222222222255667777777778888888882222222222222",
"2222222222,,33%%%7777778888888882222222222222",
"2222222222,,33%%%7777778888888882222222222222",
"2222222222,,33%%%7777778888888882222222222222",
"22222222222OOO++++++%%%%%%&&&4442222222222222",
"22222222222OOO++++++%%%%%%&&&4442222222222222",
"22222222222OOO++++++%%%%%%&&&4442222222222222",
"22222222222XXX@@@+++++++++%%%&&&2222222222222",
"22222222222XXX@@@+++++++++%%%&&&2222222222222",
"22222222222XXX@@@+++++++++%%%&&&2222222222222",
"22222222222XXX@@@222222222@@@***2222222222222",
"22222222222XXX@@@222222222@@@***2222222222222",
"22222222222XXX@@@222222222@@@***2222222222222",
"22222222222      222222222   ...2222222222222",
"22222222222      222222222   ...2222222222222",
"22222222222      222222222   ...2222222222222"
};
