/* XPM */
static char *_518b19bde624808fd69a09a115c1a9c29kirLbkXMHqZsNf[] = {
/* columns rows colors chars-per-pixel */
"45 45 89 1 ",
"  c #000000",
". c #060801",
"X c #090A01",
"o c #363635",
"O c #383735",
"+ c #3A3A36",
"@ c #3C3C3A",
"# c #4A3B00",
"$ c #564500",
"% c #775F00",
"& c #41413E",
"* c #51513F",
"= c #4F4F4E",
"- c #51534B",
"; c #535452",
": c #595A55",
"> c #5C5D59",
", c #5E605B",
"< c #62635E",
"1 c #67695C",
"2 c #6B6E5E",
"3 c #6D715E",
"4 c #767D55",
"5 c #71755F",
"6 c #74785A",
"7 c #676961",
"8 c #696B61",
"9 c #6E7164",
"0 c #727563",
"q c #767B63",
"w c #797D65",
"e c #717368",
"r c #7B7E6D",
"t c #896E00",
"y c #907400",
"u c #947804",
"i c #9A7D01",
"p c #7F8E3C",
"a c #7A8549",
"s c #798156",
"d c #7E8854",
"f c #7E855C",
"g c #7E8363",
"h c #7C8069",
"j c #B18E00",
"k c #BA9600",
"l c #96AF1F",
"z c #97B11C",
"x c #8B9E34",
"c c #869738",
"v c #8C9D3C",
"b c #94AC24",
"n c #91A62D",
"m c #93A929",
"M c #8EA135",
"N c #90A431",
"B c #C39D00",
"V c #CAA200",
"C c #D3A900",
"Z c #D9AE00",
"A c #DDB100",
"S c #E2B500",
"D c #EBBD00",
"F c #F0C000",
"G c #FFCC00",
"H c #FFCE0B",
"J c #FFCF11",
"K c #FFD018",
"L c #FFD221",
"P c #FFD42A",
"I c #FFD635",
"U c #848F4E",
"Y c #899746",
"T c #899843",
"R c #899844",
"E c #87934B",
"W c #879549",
"Q c #87944B",
"! c #86924E",
"~ c #889549",
"^ c #828C53",
"/ c #848F52",
"( c #828B57",
") c #838D54",
"_ c #848D54",
"` c #80875E",
"' c #828B59",
"] c #81895C",
"[ c #859150",
/* pixels */
"zzzzzzzzzzzzzzzzzzzzzzzzzzzzzzzzzzzzzzzzzzzzz",
"zzzzzzzzzzzzzzzzzzzzzzzzzzzzzzzzzzzzzzzzzzzzz",
"zzzzzzzzzzzzzzz              zzzzzzzzzzzzzzzz",
"zzzzzzzzzzzzzzz              zzzzzzzzzzzzzzzz",
"zzzzzzzzzzzzzzz              zzzzzzzzzzzzzzzz",
"zzzzzzzzzz     IIIIIIIIIIGGGG      zzzzzzzzzz",
"zzzzzzzzzz     IIIIGGGGGGGGGG      zzzzzzzzzz",
"zzzzzzzzzz  IIIIIGGGGGGGGHGGGGGGG  zzzzzzzzzz",
"zzzzzzzz    IIIGGGGGGGHHHHGGGGGGG    zzzzzzzz",
"zzzzzzzz    IIGGGGGGGHGGGGGGGGGGG    zzzzzzzz",
"zzzzzzzz  IIIGGGGGGHHGGGGGGGGGGGGGG  zzzzzzzz",
"zzzzzzzz  IIGGGGGGHGGGGGGGGGGGGGGGG  zzzzzzzz",
"zzzzzzzz  IIGGGGGGGGGGGGGGGGGGGGGGG  zzzzzzzz",
"zzzzzzzz  IGGGJGHGGGGGGGGGGGGGGGGGGGG   zzzzz",
"zzzzz   IIIGGGGGGGGGGGGGGGGGGGGGGGGGG X zzzzz",
"zzzzz   IIGGGHGGGGGGGGGGGGGGGGGGGGGGG . zzzzz",
"zzzzz   IIGGGHGGGG   GGG   GGGGGGGGGG . zzzzz",
"zzzzz   IPGHGGGGGG   GGG   GGGGGGGGGG . zzzzz",
"zzzzz   ILGHGGGGGG   GGG   GGGGGGGGGG . zzzzz",
"zzzzz   IKGHGGGGGG   GGG   GGGGGGGGGG . zzzzz",
"zzzzz   IHGGGGGGGG   GGG   GGGGGGGGGG . zzzzz",
"zzzzz   GHHGGGGGGG   GGG   GGGGGGGGGG . zzzzz",
"zzzzz   GGGGGGGGGGGGGGGGGGGGGGGGGGGGG . zzzzz",
"zzzzz   GGGGGGG   GGGGGGGGG   GGGGGGG X zzzzz",
"zzzzz   GGGGGGG   GGGGGGGGG   GGGGGFG X zzzzz",
"zzzzz   GGGGGGG   GGGGGGGGG   GGGGSCi   zzzzz",
"zzzzzzzz   GGGGGGG         GGGGGGA   zzzzzzzz",
"zzzzzzzz   GGGGGGG         GGGGGDV   zzzzzzzz",
"zzzzzzzz   GGGGGGG         GGGGZky   zzzzzzzz",
"zzzzzzzz     GGGGGGGGGGGGGGGGGGj%#   zzzzzzzz",
"zzzzzzzz   . GGGGGGGGGGGGGGGGGZt     zzzzzzzz",
"zzzzzzzz     GGGGGGGGGGGGGGGGjt$  zzzzzzzzzzz",
"zzzzzzzzzzz    GGGGGGGGGGGGDk     zzzzzzzzzzz",
"zzzzzzzzzzz    GGGGGGGGVBBBBu     zzzzzzzzzzz",
"zzzzzzzzzzz                       zzzzzzzzzzz",
"zzzzzzzzbmca460              *04apxmzzzzzzzzz",
"zzzzzzzbmNT)`gh              :rg)Wvnmbzzzzzzz",
"zzzzzzzbnvW'ggh1-&@+oooO+@@&-1rgf)YMnbzzzzzzz",
"zzzzzzzmMv!]ggh07<>:;;=;;:><7errg]!vMmzzzzzzz",
"zzzzzzzbnMT['`gq08<,>:::><<80qgg]_Yvnbzzzzzzz",
"zzzzzzzbmnvR!(ggwe97<<<<<79qwf')/EvNmbzzzzzzz",
"zzzzzzzlbmNvT!'`ggq0332335qg`)[EYvMnbbzzzzzzz",
"zzzzzzzzbbmnMT!/)'dsss4sssd^!WYvMnmbbzzzzzzzz",
"zzzzzzzzzzzzmMTYW!!!!!U!!EWYTvvnblzzzzzzzzzzz",
"zzzzzzzzzzzzbNvR~!!WW!!EWWYTvvxnbzzzzzzzzzzzz"
};
