/* XPM */
static char *result[] = {
/* columns rows colors chars-per-pixel */
"45 45 153 2 ",
"   c #000007",
".  c #00000C",
"X  c #030215",
"o  c #080315",
"O  c #040519",
"+  c #0B051B",
"@  c #06091B",
"#  c #0D0A1D",
"$  c #110D1D",
"%  c #11111F",
"&  c #0E0C21",
"*  c #130E22",
"=  c #0D1B2D",
"-  c #131224",
";  c #191425",
":  c #161827",
">  c #14152A",
",  c #1B1629",
"<  c #161A2D",
"1  c #1B1A2C",
"2  c #171C31",
"3  c #1A1D33",
"4  c #181939",
"5  c #211E32",
"6  c #1B2135",
"7  c #142239",
"8  c #1D233B",
"9  c #1E283C",
"0  c #232235",
"q  c #23253B",
"w  c #28273D",
"e  c #24293D",
"r  c #2A2B3E",
"t  c #37412E",
"y  c #515C1F",
"u  c #4D5C30",
"i  c #687A22",
"p  c #212741",
"a  c #252B42",
"s  c #2A2C44",
"d  c #273042",
"f  c #2C3145",
"g  c #2C334B",
"h  c #323246",
"j  c #33354D",
"k  c #323A4D",
"l  c #3A3A4C",
"z  c #2F3751",
"x  c #353B53",
"c  c #393C54",
"v  c #363D5A",
"b  c #3A3F58",
"n  c #3B4255",
"m  c #37405D",
"M  c #3C435B",
"N  c #374565",
"B  c #3D4564",
"V  c #3E4A64",
"C  c #3E4868",
"Z  c #434E53",
"A  c #454C5C",
"S  c #4A4B5E",
"D  c #495351",
"F  c #46505C",
"G  c #4A545B",
"H  c #4E595A",
"J  c #5B684C",
"K  c #576452",
"L  c #667645",
"P  c #627149",
"I  c #414560",
"U  c #424A64",
"Y  c #4B4C65",
"T  c #414769",
"R  c #434A6A",
"E  c #4A4F6A",
"W  c #445167",
"Q  c #495167",
"!  c #45526C",
"~  c #4C536B",
"^  c #4B5A69",
"/  c #515466",
"(  c #54576D",
")  c #525A6C",
"_  c #455270",
"`  c #4A5572",
"'  c #4C5974",
"]  c #535C73",
"[  c #5A5D73",
"{  c #545F7C",
"}  c #556376",
"|  c #5C6175",
" . c #57627C",
".. c #5A647B",
"X. c #5E6B7F",
"o. c #63697F",
"O. c #778B37",
"+. c #70823D",
"@. c #94AE1E",
"#. c #97B11C",
"$. c #829920",
"%. c #859B2B",
"&. c #8BA326",
"*. c #8AA128",
"=. c #92AB21",
"-. c #5B6583",
";. c #566983",
":. c #5D6A85",
">. c #5F6788",
",. c #5E6A89",
"<. c #626981",
"1. c #616C8B",
"2. c #6B6E8E",
"3. c #64718C",
"4. c #6A758C",
"5. c #6C798D",
"6. c #72758D",
"7. c #667290",
"8. c #6A7592",
"9. c #6E7B93",
"0. c #717D93",
"q. c #727D9B",
"w. c #748197",
"e. c #76839D",
"r. c #7D859A",
"t. c #7C89A1",
"y. c #7E92A5",
"u. c #818CA2",
"i. c #828BA9",
"p. c #8492A5",
"a. c #8494AE",
"s. c #8C96AB",
"d. c #899BAF",
"f. c #909AAE",
"g. c #8395B1",
"h. c #8D96B2",
"j. c #8D9BB1",
"k. c #909CB6",
"l. c #949DBB",
"z. c #95A3B6",
"x. c #98A2B6",
"c. c #95A5BA",
"v. c #9BA7BC",
"b. c #94A8BA",
"n. c #9BAABE",
"m. c #98A5C1",
"M. c #9DAEC3",
"N. c #A3AEC6",
"B. c #A3B1C4",
"V. c #A9B0C5",
"C. c #A9B8C7",
"Z. c #A6B4CB",
"A. c #B1BACE",
/* pixels */
"#.#.#.#.#.#.#.#.#.#.#.#.#.#.#.#.#.#.#.#.#.#.#.#.#.#.#.#.#.#.#.#.#.#.#.#.#.#.#.#.#.#.#.#.#.",
"#.#.#.#.#.#.#.#.#.#.#.#.#.#.#.#.#.#.#.#.#.#.#.#.#.#.#.#.#.#.#.#.#.#.#.#.#.#.#.#.#.#.#.#.#.",
"#.#.#.#.#.#.#.#.#.#.#.#.#.#.#.#.#.#.#.#.#.#.#.@.#.#.#.#.#.#.#.#.#.#.#.#.#.#.#.#.#.#.#.#.#.",
"#.#.#.#.#.#.#.#.#.#.#.#.#.#.#.# # # # # # # # # # # # & #.#.#.#.#.#.#.#.#.#.#.#.#.#.#.#.#.",
"#.#.#.#.#.#.#.#.#.#.#.#.#.#.#.# # # # # # # # # # # # # #.#.#.#.#.#.#.#.#.#.#.#.#.#.#.#.#.",
"#.#.#.#.#.#.#.#.#.#.#.#.# # # 4.n.z.z.z.z.z.z.z.z.z.x.v.# # # # #.#.#.#.#.#.#.#.#.#.#.#.#.",
"#.#.#.#.#.#.#.#.#.#.# # # # + 7.t.e.e.e.e.e.e.e.e.e.e.e.# # # # #.#.#.#.#.#.#.#.#.#.#.#.#.",
"#.#.#.#.#.#.#.#.#.@.# # Z.c.N.q.;.,.,.,.,.:.,.>.,.,.,.:.j.M.B.t.# # #.#.#.#.#.#.#.#.#.#.#.",
"#.#.#.#.#.#.#.#.# # ] X.9.9.q.E j c c c c c c l c c c c 3.0.0.9.# # # # #.#.#.#.#.#.#.#.#.",
"#.#.#.#.#.#.#.#.# # B.y.-.1.2.a @ $ $ $ $ $ $ $ # $ $ % ' 1...3.B.6.  # #.#.#.#.#.#.#.#.#.",
"#.#.#.#.#.#.#.#.# # 0.' a s h , ; ; ; ; , , ; ; ; ; , ; r s s k 0.' @ # #.#.#.#.#.#.#.#.#.",
"#.#.#.#.#.#.#.#.# $ 1.M $ * * ; ; ; ; ; ; ; ; ; ; ; ; ; * * $ 3 <.Q X $ #.#.#.#.#.#.#.#.#.",
"#.#.#.#.#.#.# # r.o.5 5 , , , ; ; ; ; ; ; ; ; ; ; ; ; ; , ; , , 5 l u.] # # #.#.#.#.#.#.#.",
"#.#.#.#.#.#.# # v.0.+ ; ; ; ; ; ; ; ; ; ; ; ; ; ; ; ; ; , ; ; ; $ l V.[ . # #.#.#.#.#.#.#.",
"#.#.#.#.#.#.# # d.5.% , ; ; ; , ; ; ; ; ; ; ; ; ; ; ; ; ; ; ; ; $ l n.[ X # #.#.#.#.#.#.#.",
"#.#.#.#.#.#.# # d.5.- , ; ; ; ; ; ; ; ; ; ; ; % ; ; ; ; ; ; ; ; % l n.( X # #.#.#.#.#.#.#.",
"#.#.#.#.#.#.# # b.9.O ; ; ; , ; ; ; ; ; ; ; ; ; ; ; ; ; ; ; ; ; o j N.[ O # #.#.#.#.#.#.#.",
"#.#.#.#.#.@.# # 4.o.c h , , , ; ; ; ; ; ; ; - ; ; ; ; ; ; , ; 5 x ^ s.~ X # #.#.#.#.#.#.#.",
"#.#.#.#.#.#.# # 3 n A.o.X $ # ; ; ; ; ; ; ; ; ; ; ; ; ; $ # o 5 M.a.,.A O # #.#.#.#.#.#.#.",
"#.#.#.#.#.#.# # x v } ) / / ( w - ; ; ; , , ; , ; ; , ; A ) / / } ' R j O # #.#.#.#.#.#.#.",
"#.#.#.#.#.#.# # T m = ^ C.n.V.j O & & & & & # & # # # # r.m.B.d.6 8 7 3 # # #.#.#.#.#.#.#.",
"#.#.#.#.#.#.# # q q 1 d Y ' [ <.<.<.<.<.<.<.<.o.<.o.o.o.4.4.~ I 1 k 9.A X # #.#.#.#.#.#.#.",
"#.#.#.#.#.#.# # % - - : 4 j v t.M.n.n.n.v.n.m.n.n.n.n.n.5. .9 2 # c Z.| X # #.#.#.#.#.#.#.",
"#.#.#.#.#.#.# # ( ! 8 U h.Y > z m a r r a w w w e e w r g z r.6.* f e.M X # #.#.#.#.#.#.#.",
"#.#.#.#.#.#.# # 1.{ 4 E N.S + q s > - * % - : > - : - $ q g s.t.* s 3.M o # #.#.#.#.#.#.#.",
"#.#.#.#.#.#.# # 1.` > 1 1 ; ; j b a w * h s.y.a.p.f.c & w.d.4.] * s 8.M O # #.#.#.#.#.#.#.",
"#.#.#.#.#.#.# # -.E ; , q 1 * v _ m x - s s.g.y.g.k.M & 4.u...~ * a 1.v o # #.#.#.#.#.#.#.",
"#.#.#.#.#.#.# # T x $ h 8.c + 8.m.l.p.: q 1.,.,.,.3.f * 8 p p 8 - q V g @ # #.#.#.#.#.#.#.",
"#.#.#.#.#.#.# # B v * s -.g # :.a.i.q., 0 ' ' ' ' ] s $ z b v z - q V f # # #.#.#.#.#.#.#.",
"#.#.#.#.#.#.# # T c * q U s $ W >.-.] ; ; 8 8 9 8 q , ; { 7.7. .- 8 ! a o # #.#.#.#.#.#.#.",
"#.#.#.#.#.#.# # a s ; w U a # W 1.,...> 3 V V V T I 0 * C ' ` C - 0 g d # # #.#.#.#.#.#.#.",
"#.#.#.#.#.#.y - # & - q R r # ! 1.,. .- q 7.3.3.1.7.g & N C B v > - # & - i #.#.#.#.#.#.#.",
"#.#.#.#.#.#.$.> < # & 6 s 3 ; Y ,.>. .- 6 ` _ _ _ ` q * a s s q & & - 2 s %.#.#.#.#.#.#.#.",
"#.#.#.#.#.#.#.t > < # # # # # ~ 7.,.-.< 5 B B B N B 8 > # # # # & - < 8 J @.#.#.#.#.#.#.#.",
"#.#.#.#.#.#.#.u f e 2 # # & # # # # # # + # # # # # # # % # # # 2 2 8 G &.#.#.#.#.#.#.#.#.",
"#.#.#.#.#.#.#.&.D n e 6 > # # # # # # # # # # # # # # # # # # 2 3 e A %.#.#.#.#.#.#.#.#.#.",
"#.#.#.#.#.#.#.@.*.D n 6 6 2 - # # # # # # # # # # # # # & > 6 6 k A %.#.#.#.#.#.#.#.#.#.#.",
"#.#.#.#.#.#.#.#.@.O.F m d 8 6 2 < # # # # # # # & # & - 2 6 e n H &.#.#.#.#.#.#.#.#.#.#.#.",
"#.#.#.#.#.#.#.#.#.=.*.K A x p 6 6 6 < < 2 2 6 6 3 6 2 9 9 k M ^ &.#.#.#.#.#.#.#.#.#.#.#.#.",
"#.#.#.#.#.#.#.#.#.#.@.*.P F V M d 9 9 6 6 2 : < 0 r n n Z F i =.#.#.#.#.#.#.#.#.#.#.#.#.#.",
"#.#.#.#.#.#.#.#.#.#.#.#.=.*.P V V U U ^ Y F F A F G G H K &.#.#.#.#.#.#.#.#.#.#.#.#.#.#.#.",
"#.#.#.#.#.#.#.#.#.#.#.#.#.#.#.=.&.O.i L L L L L +.%.O.=.#.#.#.#.#.#.#.#.#.#.#.#.#.#.#.#.#.",
"#.#.#.#.#.#.#.#.#.#.#.#.#.#.#.#.#.#.#.#.#.=.#.#.#.#.#.#.#.#.#.#.#.#.#.#.#.#.#.#.#.#.#.#.#.",
"#.#.#.#.#.#.#.#.#.#.#.#.#.#.#.#.#.#.#.#.#.#.#.#.#.#.#.#.#.#.#.#.#.#.#.#.#.#.#.#.#.#.#.#.#.",
"#.#.#.#.#.#.#.#.#.#.#.#.#.#.#.#.#.#.#.#.#.#.#.#.#.#.#.#.#.#.#.#.#.#.#.#.#.#.#.#.#.#.#.#.#."
};
