/* XPM */
static char *b611c6904d7d459486634b40da3a116chOjqKH96C33DzWEp[] = {
/* columns rows colors chars-per-pixel */
"45 45 15 1 ",
"  c #2C332A",
". c #2C342A",
"X c #3B3B39",
"o c #701A31",
"O c #741A33",
"+ c #674739",
"@ c #69493A",
"# c #9B293B",
"$ c #9E293B",
"% c #8D624F",
"& c #8D6350",
"* c #916552",
"= c #946856",
"- c #97B11C",
"; c #FEFEFF",
/* pixels */
"---------------------------------------------",
"---------------------------------------------",
"---------------------------------------------",
"---------------------------------------------",
"---------------------------------------------",
"---------------------------------------------",
"---------------------------------------------",
"---------------------------------------------",
"---------------------------------------------",
"---------------------------------------------",
"---------------------------------------------",
"---------------------------------------------",
"---------------------------------------------",
"---------------------------------------------",
"---------------------------------------------",
"---------------------------------------------",
"---------------------------------------------",
"---------------------------------------------",
"---------------------------------------------",
"------------------...........----------------",
"------------------...........----------------",
"------------------...........----------------",
"-------------.....XXXXXXXXXXX......----------",
"-------------.....XXXXXXXXXXX......----------",
"-------------.....XXXXXXXXXXX......----------",
"----------...oOOOO$$$$$$XXXXXXXX$$$...-------",
"----------...OOOOO$$$$$$XXXXXXXX$$$...-------",
"----------...OOOOO$$$$$$XXXXXXXX$$#...-------",
"-------...OOOOOOOOXXXXXX$$$$$$$$XXXXXX...----",
"-------.. OOOOOOOOXXXXXX$$$$$$$$XXXXXX...----",
"-------...OOOOOOOOXXXXXX$$$$$$$$XXXXXX...----",
"-------...OOOOOOOO$$$$$$$$$$$$$$$$$$$$...----",
"-------...oOOOOOOO$$$$$$$$$$$$$$$$$$$$...----",
"----.................$$$$$$OOOOOOOO$$$...----",
"----.................$$$$$$OOOOOOOO$$$...----",
"----.................$$$$$$OOOOOOOO$$$...----",
"-...@@@...***...****=OOOOOO;;;$$;;;OOO@+@...-",
"-...@@@...***...*****OOOOOO;;;$$;;;OOO+++...-",
"-...@@@...***...*****OOOOOO;;;$$;;;OOO+++...-",
"-...@@@...***...***........&&%..%%&...+++...-",
"-...@@@...***...***........%%%..%%%...+++...-",
"-...@@@...***...***........%%%..%%%...++@...-",
"-.............................--............-",
"-.............................--............-",
"-.............................--............-"
};
