/* XPM */
static char *_b37dd328d72485984a9c22b5e54288aOP8A4KUVY83OTYE6[] = {
/* columns rows colors chars-per-pixel */
"45 45 144 2 ",
"   c #020C1D",
".  c #04101E",
"X  c #0B111F",
"o  c #040F21",
"O  c #080F21",
"+  c #061221",
"@  c #0B1423",
"#  c #0D1924",
"$  c #0E1728",
"%  c #0F1B29",
"&  c #121524",
"*  c #121B26",
"=  c #151C29",
"-  c #191E2C",
";  c #17212A",
":  c #1A212D",
">  c #172131",
",  c #1D2331",
"<  c #1F2932",
"1  c #20222F",
"2  c #23282E",
"3  c #212632",
"4  c #242B35",
"5  c #292C36",
"6  c #262C39",
"7  c #2A2E39",
"8  c #312F3A",
"9  c #2C3236",
"0  c #2D313B",
"q  c #32333D",
"w  c #35393E",
"e  c #38393E",
"r  c #2C3240",
"t  c #343641",
"y  c #383641",
"u  c #363943",
"i  c #3B3C44",
"p  c #3E3E48",
"a  c #413F47",
"s  c #423F48",
"d  c #3F4045",
"f  c #3F424B",
"g  c #434346",
"h  c #484746",
"j  c #464847",
"k  c #494947",
"l  c #45454A",
"z  c #49474C",
"x  c #47494D",
"c  c #4B4A4D",
"v  c #504E4E",
"b  c #4E504F",
"n  c #52514F",
"m  c #464552",
"M  c #4A4750",
"N  c #4D4C52",
"B  c #4E4E58",
"V  c #514E55",
"C  c #524F59",
"Z  c #4F5054",
"A  c #525155",
"S  c #585357",
"D  c #5C5B57",
"F  c #555359",
"G  c #5A565C",
"H  c #57585D",
"J  c #5C595D",
"K  c #615C5F",
"L  c #5E5B61",
"P  c #625D63",
"I  c #656265",
"U  c #696466",
"Y  c #676368",
"T  c #6B656A",
"R  c #6E6A6B",
"E  c #6D6968",
"W  c #6E686C",
"Q  c #6F696D",
"!  c #6D6B6E",
"~  c #6E6A6D",
"^  c #716B6B",
"/  c #706C6B",
"(  c #726C6E",
")  c #776F6D",
"_  c #766D6E",
"`  c #716C6D",
"'  c #74706F",
"]  c #76716E",
"[  c #6F6D70",
"{  c #6F6D72",
"}  c #716C70",
"|  c #746F75",
" . c #736E71",
".. c #786F72",
"X. c #786E76",
"o. c #767273",
"O. c #777172",
"+. c #797071",
"@. c #787370",
"#. c #7C7472",
"$. c #7D7573",
"%. c #787274",
"&. c #7C7374",
"*. c #7A7474",
"=. c #7F7775",
"-. c #7F7576",
";. c #7A7475",
":. c #7E7976",
">. c #7A737A",
",. c #7D7479",
"<. c #7F7679",
"1. c #7D757A",
"2. c #7F7979",
"3. c #7E787A",
"4. c #7F787F",
"5. c #7E797B",
"6. c #807875",
"7. c #817976",
"8. c #82797C",
"9. c #877D7C",
"0. c #847C7D",
"q. c #89817F",
"w. c #847E80",
"e. c #878382",
"r. c #8E8483",
"t. c #8C8384",
"y. c #8B8585",
"u. c #8A8384",
"i. c #8E858A",
"p. c #92868A",
"a. c #938A8A",
"s. c #988E8D",
"d. c #998F90",
"f. c #9C9291",
"g. c #9B9191",
"h. c #A19696",
"j. c #A49997",
"k. c #A39997",
"l. c #A59A98",
"z. c #A99E9C",
"x. c #ADA2A0",
"c. c #B8AAAA",
"v. c #BBADAA",
"b. c #B9AFAD",
/* pixels */
"- 0 4 3 , 1 , : : > > > > - > 3 7 w i i g d i i w w 0 4 # ; 0 i l l g l l g i g d d x c # ",
"u <.&.Y J P Y Y I U Y W R T T U U T E ..8.3.%.#.' _ %.i + 3 W +._ -.6.+.' #.6.6.#._ 0.N + ",
"0 I 3.p.b.v.z.y.>.W Y Y Y T T R I ^ r.t. .Y I I S +.I 7 # q I O.G Y / U I I I I Y ! ( 4 # ",
"0 I Y x.c.i.e.<.Y L I I W Y I P -.*.L N c N N N N P J q = q A F M j x c c M z z z A A 6 # ",
"q I ! j.| u M M M M M N N V S P P V N F A N A V V F ! i - 7 J J N N N N l z l z c S J 7 # ",
"7 P [ l.4.M A N V N N N N l A N N V A A V N N V M V Y F 3 , J J N N N c g l v c N V N 6 # ",
"0 J R f.8.z N N N M z x a N V c N V V V N c z c N N F J q - F J M N c c l k l d c P F 7 # ",
"0 J W p.0.z N N N N z g z F N N N A C A N c c z c N V K i - N F c l x c j z g l D L N 5 # ",
"0 J T y.0.l N V N N N N A N V V C V V C N c c z z N N L N : N G c c c l g l c J F N N 6 * ",
"0 S U 0.8.N A A V V N V N N N N V V N B N c z g d N c F G 3 S Y V c S S A A J F N V V 7 * ",
"0 A I O.:.A N N N M N N N N z N V N N N c z g g g N c F A : u F J A c b c N V N A A A 6 # ",
"7 c J  .O.A N M N N A N z z N V N N N V c z l i g N M A l - 4 4 l L G A N N A N V F A 7 * ",
"4 g G ( *.G x c A N V F V V V N N N N N N N z z N N N J 4 q N # = 7 N J J V V S F A N 0 # ",
"4 i F *.*.V M N Z N V N N N N N N N N N A A N c l z F F - i -.F g w , i G L F A A N A 0 + ",
", t F 8.T N N N N N N N N N N N N N N N V N N N N N P l - m 0.} I M u 3 4 u A L L P ! 0 . ",
"< u J q.T N N A V N N N N N N N N N N N N N N A N F J w : H 0.G P I V l u 3 3 7 7 q i r + ",
"4 g J s. .c N N N V N N N N N N c c N c N c A V N G N 3 , I %.N N F J G J G x w 0 3 * +   ",
"4 z L k.! z N M N N N N N V N c M c c M c N F N V J g - t Y E M V Z N N N N J P J  .X.t   ",
"0 N P g.I z M N V N N V N N N c z N c c N A V N A S q % g W I z N N c N N M z N N ` P 4 + ",
"0 Z I p.P c c N N B N V N N c l g V N V N N A N F V 5 = z ! K l z c l c N z N A M G G 3 + ",
"q A T y.P c A A N N N c c z l l A V N M M c A N G z = : N ( A g l l z z g i N c N F P 4 + ",
"7 A ! u.J A V N V N N M c l g A N N N N N N V M G u + 7 G / N l j c l z c l M c A Z P 4 @ ",
"5 A ( 0.L M c N N N z x l l A c M N N N Z V N M F 0 . y K ! M c z c j Z N V N A A A P 6 @ ",
"5 A *.3.F x M V N N c z g l c M N M N N N A V V A 4 + l Y W M N Z c Z N N N N A A N P 4 @ ",
"7 F 8.! M M N N N M z l a N b c M M N N N A V A A : # M W Y c N N A A N N N N A N F J , $ ",
"0 F 0.I M N Z N V A M c V F c N c N N N N N A F C * - N ! J N N V N N N N N N F N F G , # ",
"7 J u.T x M N N V F V A V N N N N N N N M N A F A + 3 F ` A N A A N N N N N N A N A G , + ",
"0 J s.T M M c Z A N N N N N N N N N N N c F A G N + 6 J T N V N N N N N N N c A N A G : o ",
"7 H d.P M N N Z N N N N N N N N M N N N c F N G M   y Y P N N V V N N N N N N A N A J : . ",
"7 F g.L M Z Z N N N N N N N N N N c N l N F N J u   z Y F N N N A N M c M N N F N A I ,   ",
"7 J h.J M A N N N N N N N N c c c c c l V A N J 7 # F T V N N N V N c c N M V V N C T 4   ",
"4 I k. .Z N V N N N N N N N c c c z z N F N N G : 4 L ! C N N N N c z z c c N V N A P 4   ",
"5 <.y.u.B N N N N N V N N c N c l l A V N N V F % y P ,.V N N N c z h z z l c V N F J 4   ",
"- P J ` I z N V N N N N M c l z c A N N C N A M + u &.^ z N N c v l g k z l l N V F J 7   ",
"  - g A 1.[ N N V N V V N c N c N N N N N V F f   N w.N N M V c c g l z g g g N A V G 0 o ",
"# 7 - m C >.4.A N F F A N N N N N N V V N N G u   !  .z N N c c c l g h g g c F N A G 0 + ",
"3 *.A u N C !  .A N A N N N N N N N Z N V N J 7 * F W V N c z c g l l l l z V c N C A 7 + ",
"3 I 0.F 4 N M J W G N N A V N N N N V N N A F * = c T G l l l c g l l g k c c c c V A 0 + ",
"3 D 3. .z 5 c N L W L V C F V V N B N N M P y . # g P P c A A n V l g h c c c l N N A 0 + ",
"5 J +.P F c - q z A L W V A A V V N V M T A + 7 4 , A L S N N c N A k v c z z z A N S 0 + ",
": J +.P c L z # 3 z g Y W M M N N N z T &.: * q.P - e G F N N N c N N c z z c v V A D 0 O ",
"= J  .P c N L i   3 7 y  .+.P W W W Y h.M   ` 8.N A 9 N J M c c M c c A c S S V N V K t + ",
"& J ^ ` G J J P i : P : q 3.d.F A V N G : - w.P G G i w P J J I K D G G J G J K K W 0.y + ",
"X G I c g s z p l 8 <.i - V N t i u u i + z P i z c l * N F V N z i i i w q q y g l V y   ",
"  i y 4 0 0 9 7 4 4 w 4 = 7 7 4 4 4 0 7 + 4 2 4 q 0 :   : ; = - - - = = * # # # # +     + "
};
