/* XPM */
static char *_82822eda0774fa3a451d0e58460fb3a6xya0WRYJ9NhJ6xE[] = {
/* columns rows colors chars-per-pixel */
"360 45 37 1 ",
"  c black",
". c gray6",
"X c #151515",
"o c #181818",
"O c #0D1225",
"+ c #151F3C",
"@ c gray14",
"# c #3D3933",
"$ c #7D3C28",
"% c #1D2853",
"& c #1D2B53",
"* c #25376A",
"= c gray26",
"- c #4E4841",
"; c #555048",
": c #88412B",
"> c #94472F",
", c #AB5236",
"< c #B7672F",
"1 c #C25D3E",
"2 c #C97155",
"3 c #97B11C",
"4 c #FF964D",
"5 c #2D4381",
"6 c #007BC8",
"7 c #0084D7",
"8 c #0AA1FF",
"9 c #29ADFF",
"0 c #A2A3A9",
"q c #B2B3B8",
"w c #BABBBF",
"e c #FFBA8B",
"r c #FFCCAA",
"t c #C2C3C7",
"y c #D2D3D6",
"u c #D2D4D5",
"i c white",
/* pixels */
"333333333333333333333333333333333333333333333333333333333333333333333333333333333333333333333333333333333333333333333333333333333333333333333333333333333333333333333333333333333333333333333333333333333333333333333333333333333333333333333333333333333333333333333333333333333333333333333333333333333333333333333333333333333333333333333333333333333333333333333333",
"333333333333333333333333333333333333333333333333333333333333333333333333333333333333333333333333333333333333333333333333333333333333333333333333333333333333333333333333333333333333333333333333333333333333333333333333333333333333333333333333333333333333333333333333333333333333333333333333333333333333333333333333333333333333333333333333333333333333333333333333",
"33333333333333333333333333333333333333333333333333333333333333333333333333333333333333333333333333333333:::,,,,,,,,,111111333333333333333333333333333333333333333333333333333333333333333333333333:::,,,,,,,,,1111113333333333333333333333333333333333333333333333333333333333333333333333333333333333333333333333333333333333333333333333333333333333333333333333333333",
"33333333333333:::,,,,,,,,,111111333333333333333333333333333333333333333333333333333333333333333333333333:::,,,,,,,,,111111333333333333333333333333333333333333333333333333333333333333333333333333:::,,,,,,,,,1111113333333333333333333333333333333333333333333333333333333333333333333333333333333333333333333333333333333333333333333333333333333333333333333333333333",
"33333333333333:::,,,,,,,,,111111333333333333333333333333333333333333333333333333333333333333333333333333:::,,,,,,,,,111111333333333333333333333333333333333333333333333333333333333333333333333333:::,,,,,,,,,1111113333333333333333333333333333333333333333333333333333333333333333333333333333333333333333333333333333333333333333333333333333333333333333333333333333",
"33333333333333:::,,,,,,,,,111111333333333333333333333333333:::,,,,,,,,,111111333333333333333333333333$$$$$$>>>,,,,,,111111111333333333333333333333333:::,,,,,,,,,111111333333333333333333333333$$$$$$>>>,,,,,,111111111333333333333333333333333:::,,,,,,,,,111111333333333333333333333333333:::,,,,,,,,,111111333333333333333333333333333:::,,,,,,,,,1111113333333333333",
"33333333333$$$$$$>>>,,,,,,111111111333333333333333333333333:::,,,,,,,,,111111333333333333333333333333$$$$$$>>>,,,,,,111111111333333333333333333333333:::,,,,,,,,,111111333333333333333333333333$$$$$$>>>,,,,,,111111111333333333333333333333333:::,,,,,,,,,111111333333333333333333333333333:::,,,,,,,,,111111333333333333333333333333333:::,,,,,,,,,1111113333333333333",
"33333333333$$$$$$>>>,,,,,,111111111333333333333333333333333:::,,,,,,,,,111111333333333333333333333333$$$$$$>>>,,,,,,111111111333333333333333333333333:::,,,,,,,,,111111333333333333333333333333$$$$$$>>>,,,,,,111111111333333333333333333333333:::,,,,,,,,,111111333333333333333333333333333:::,,,,,,,,,111111333333333333333333333333333:::,,,,,,,,,1111113333333333333",
"33333333333$$$$$$>>>,,,,,,111111111333333333333333333333$$$$$$>>>,,,,,,111111111333333333333333333333$$$$$$###---rrr---;;;222333333333333333333333$$$$$$>>>,,,,,,111111111333333333333333333333$$$$$$###---rrr---;;;222333333333333333333333$$$$$$>>>,,,,,,111111111333333333333333333333$$$$$$>>>,,,,,,111111111333333333333333333333$$$$$$>>>,,,,,,1111111113333333333",
"33333333333$$$$$$###---rrr---;;;222333333333333333333333$$$$$$>>>,,,,,,111111111333333333333333333333$$$$$$###---rrr---;;;222333333333333333333333$$$$$$>>>,,,,,,111111111333333333333333333333$$$$$$###---rrr---;;;222333333333333333333333$$$$$$>>>,,,,,,111111111333333333333333333333$$$$$$>>>,,,,,,111111111333333333333333333333$$$$$$>>>,,,,,,1111111113333333333",
"33333333333$$$$$$###---rrr---;;;222333333333333333333333$$$$$$>>>,,,,,,111111111333333333333333333333$$$$$$###---rrr---;;;222333333333333333333333$$$$$$>>>,,,,,,111111111333333333333333333333$$$$$$###---rrr---;;;222333333333333333333333$$$$$$>>>,,,,,,111111111333333333333333333333$$$$$$>>>,,,,,,111111111333333333333333333333$$$$$$>>>,,,,,,1111111113333333333",
"33333333333$$$$$$###---rrr---;;;222333333333333333333333$$$$$$###---rrr---;;;222333333333333333333333$$$eeeiiiooorrriiiooo333333333333333333333333$$$$$$###---rrr---;;;222333333333333333333333$$$eeeiiiooorrriiiooo333333333333333333333333$$$$$$###---rrr---;;;222333333333333333333333$$$$$$rrrrrrrrrrrrrrr222333333333333333333333$$$$$$###---rrr---;;;2223333333333",
"33333333333$$$eeeiiiooorrriiiooo333333333333333333333333$$$$$$###---rrr---;;;222333333333333333333333$$$eeeiiiooorrriiiooo333333333333333333333333$$$$$$###---rrr---;;;222333333333333333333333$$$eeeiiiooorrriiiooo333333333333333333333333$$$$$$###---rrr---;;;222333333333333333333333$$$$$$rrrrrrrrrrrrrrr222333333333333333333333$$$$$$###---rrr---;;;2223333333333",
"33333333333$$$eeeiiiooorrriiiooo333333333333333333333333$$$$$$###---rrr---;;;222333333333333333333333$$$eeeiiiooorrriiiooo333333333333333333333333$$$$$$###---rrr---;;;222333333333333333333333$$$eeeiiiooorrriiiooo333333333333333333333333$$$$$$###---rrr---;;;222333333333333333333333$$$$$$rrrrrrrrrrrrrrr222333333333333333333333$$$$$$###---rrr---;;;2223333333333",
"33333333333$$$eeeiiiooorrriiiooo333333333333333333333333$$$eeeiiiooorrriiiooo333333333333333333333333$$$eeeiiiooorrriiiooo333333333333333333333333$$$eeeiiiooorrriiiooo333333333333333333333333$$$eeeiiiooorrriiiooo333333333333333333333333$$$eeeiiiooorrriiiooo333333333333333333333333$$$eeerrrrrrrrrrrrrrr333333333333333333333333$$$eeeiiiooorrriiiooo3333333333333",
"33333333333$$$eeeiiiooorrriiiooo333333333333333333333333$$$eeeiiiooorrriiiooo333333333333333333333333$$$eeeiiiooorrriiiooo333333333333333333333333$$$eeeiiiooorrriiiooo333333333333333333333333$$$eeeiiiooorrriiiooo333333333333333333333333$$$eeeiiiooorrriiiooo333333333333333333333333$$$eee###---rrr---;;;333333333333333333333333$$$eeeiiiooorrriiiooo3333333333333",
"33333333333$$$eeeiiiooorrriiiooo333333333333333333333333$$$eeeiiiooorrriiiooo333333333333333333333333$$$eeerrrrrrrrrrrrrrr333333333333333333333333$$$eeeiiiooorrriiiooo333333333333333333333333$$$eeerrrrrrrrrrrrrrr333333333333333333333333$$$eeeiiiooorrriiiooo333333333333333333333333$$$eee###---rrr---;;;333333333333333333333333$$$eeeiiiooorrriiiooo3333333333333",
"33333333333$$$eeerrrrrrrrrrrrrrr333333333333333333333333$$$eeeiiiooorrriiiooo333333333333333333333333000wwweeeeeerrrrrruuu333333333333333333333333$$$eeeiiiooorrriiiooo333333333333333333333333000wwweeeeeerrrrrruuu333333333333333333333333$$$eeeiiiooorrriiiooo333333333333333333333333$$$eee###---rrr---;;;333333333333333333333333$$$eeeiiiooorrriiiooo3333333333333",
"33333333333000wwweeeeeerrrrrruuu333333333333333333333333$$$eeeiiiooorrriiiooo333333333333333333333333000wwweeeeeerrrrrruyu333333333333333333333333$$$eeeiiiooorrriiiooo333333333333333333333333000wwweeeeeerrrrrruyu333333333333333333333333$$$eeeiiiooorrriiiooo333333333333333333333333$$$eeerrrrrrrrrrrrrrr333333333333333333333333$$$eeeiiiooorrriiiooo3333333333333",
"33333333333000wwweeeeeerrrrrruyu333333333333333333333333$$$eeerrrrrrrrrrrrrrr333333333333333333333333000wwweeeeeerrrrrruuu333333333333333333333333$$$eeerrrrrrrrrrrrrrr333333333333333333333333000wwweeeeeerrrrrruuu333333333333333333333333$$$eeerrrrrrrrrrrrrrr333333333333333333333333$$$eeerrrrrrrrrrrrrrr333333333333333333333333$$$eeerrrrrrrrrrrrrrr3333333333333",
"33333333333000wwweeeeeerrrrrruuu333333333333333333333333000wwweeeeeerrrrrruuu333333333333333333333336677888qqqtttyyyyyy999333333333333333333333333000wwweeeeeerrrrrruuu333333333333333333333336677888qqqtttyyyyyy999333333333333333333333333000wwweeeeeerrrrrruuu333333333333333333333333000wwweeeeeerrrrrruuu333333333333333333333333000wwweeeeeerrrrrruuu3333333333333",
"33333333336677888qqqtttyyyyyy999333333333333333333333333000wwweeeeeerrrrrruyu333333333333333333333336677888qqqtttyyyyyy999333333333333333333333333000wwweeeeeerrrrrruyu333333333333333333333336677888qqqtttyyyyyy999333333333333333333333333000wwweeeeeerrrrrruyu333333333333333333333333000wwweeeeeerrrrrruyu333333333333333333333333000wwweeeeeerrrrrruyu3333333333333",
"33333333336677888qqqtttyyyyyy999333333333333333333333333000wwweeeeeerrrrrruuu333333333333333333333336677888qqqtttyyyyyy999333333333333333333333333000wwweeeeeerrrrrruuu333333333333333333333336677888qqqtttyyyyyy999333333333333333333333333000wwweeeeeerrrrrruuu333333333333333333333333000wwweeeeeerrrrrruuu333333333333333333333333000wwweeeeeerrrrrruuu3333333333333",
"33333333336677888qqqtttyyyyyy999333333333333333333333336677888qqqtttyyyyyy999333333333333333333333336677888888999999999999333333333333333333333336677888qqqtttyyyyyy999333333333333333333333336677888888999999999999333333333333333333333336677888qqqtttyyyyyy999333333333333333333333336677888qqqtttyyyyyy999333333333333333333333336677888qqqtttyyyyyy9993333333333333",
"33333333336677888888999999999999333333333333333333333336677888qqqtttyyyyyy999333333333333333333333336677888888999999999999333333333333333333333336677888qqqtttyyyyyy999333333333333333333333336677888888999999999999333333333333333333333336677888qqqtttyyyyyy999333333333333333333333336677888qqqtttyyyyyy999333333333333333333333336677888qqqtttyyyyyy9993333333333333",
"33333333336677888888999999999999333333333333333333333336677888qqqtttyyyyyy999333333333333333333333336677888888999999999999333333333333333333333336677888qqqtttyyyyyy999333333333333333333333336677888888999999999999333333333333333333333336677888qqqtttyyyyyy999333333333333333333333336677888qqqtttyyyyyy999333333333333333333333336677888qqqtttyyyyyy9993333333333333",
"333333333366778888889999999999993333333333333333333333366778888889999999999993333333333333333333333366778888888889999999993333333333333333333333366778888889999999999993333333333333333333333366778888888889999999993333333333333333333333366778888889999999999993333333333333333333333366778888889999999999993333333333333333333333366778888889999999999993333333333333",
"333333333366778888888889999999993333333333333333333333366778888889999999999993333333333333333333333366778888888889999999993333333333333333333333366778888889999999999993333333333333333333333366778888888889999999993333333333333333333333366778888889999999999993333333333333333333333366778888889999999999993333333333333333333333366778888889999999999993333333333333",
"333333333366778888888889999999993333333333333333333333366778888889999999999993333333333333333333333366778888888889999999993333333333333333333333366778888889999999999993333333333333333333333366778888888889999999993333333333333333333333366778888889999999999993333333333333333333333366778888889999999999993333333333333333333333366778888889999999999993333333333333",
"3333333333667788888888899999999933333333333333333333333667788888888899999999933333333333333333333333<<44%%%88888899999999933333333333333333333333667788888888899999999933333333333333333333333<<44%%%8888889999999993333333333333333333333366778888888889999999993333333333333333333333366778888888889999999993333333333333333333333366778888888889999999993333333333333",
"3333333333<<44%%%88888899999999933333333333333333333333667788888888899999999933333333333333333333333<<44%%%88888899999999933333333333333333333333667788888888899999999933333333333333333333333<<44%%%8888889999999993333333333333333333333366778888888889999999993333333333333333333333366778888888889999999993333333333333333333333366778888888889999999993333333333333",
"3333333333<<44%%%88888899999999933333333333333333333333667788888888899999999933333333333333333333333<<44%%%88888899999999933333333333333333333333667788888888899999999933333333333333333333333<<44%%%8888889999999993333333333333333333333366778888888889999999993333333333333333333333366778888888889999999993333333333333333333333366778888888889999999993333333333333",
"3333333333<<44%%%88888899999999933333333333333333333333<<44%%%888888999999999333333333333333333333333OOO++++++%%%%%%***55533333333333333333333333<<44%%%888888999999999333333333333333333333333OOO++++++%&%%%%***55533333333333333333333333<<44%%%88888899999999933333333333333333333333<<44%%%88888899999999933333333333333333333333<<44%%%8888889999999993333333333333",
"33333333333OOO++++++%%%%%%***55533333333333333333333333<<44%%%888888999999999333333333333333333333333OOO++++++%%%%%%***55533333333333333333333333<<44%%%888888999999999333333333333333333333333OOO++++++%%%%%%***55533333333333333333333333<<44%%%88888899999999933333333333333333333333<<44%%%88888899999999933333333333333333333333<<44%%%8888889999999993333333333333",
"33333333333OOO++++++%%%%%%***55533333333333333333333333<<44%%%888888999999999333333333333333333333333OOO++++++%%%%%%***55533333333333333333333333<<44%%%888888999999999333333333333333333333333OOO++++++%%%%%%***55533333333333333333333333<<44%%%88888899999999933333333333333333333333<<44%%%88888899999999933333333333333333333333<<44%%%8888889999999993333333333333",
"33333333333OOO++++++%%%%%%***555333333333333333333333333OOO++++++%%%%%%***555333333333333333333333333XXX@@@+++++++++%%%***333333333333333333333333OOO++++++%%%%%%***555333333333333333333333333XXX@@@+++++++++%%%***333333333333333333333333OOO++++++%%%%%%***555333333333333333333333333OOO++++++%%%%%%***555333333333333333333333333OOO++++++%%%%%%***5553333333333333",
"33333333333XXX@@@+++++++++%%%***333333333333333333333333OOO++++++%%%%%%***555333333333333333333333333XXX@@@+++++++++%%%***333333333333333333333333OOO++++++%%%%%%***555333333333333333333333333XXX@@@+++++++++%%%***333333333333333333333333OOO++++++%%%%%%***555333333333333333333333333OOO++++++%%%%%%***555333333333333333333333333OOO++++++%%%%%%***5553333333333333",
"33333333333XXX@@@+++++++++%%%***333333333333333333333333OOO++++++%%%%%%***555333333333333333333333333XXX@@@+++++++++%%%***333333333333333333333333OOO++++++%%%%%%***555333333333333333333333333XXX@@@+++++++++%%%***333333333333333333333333OOO++++++%%%%%%***555333333333333333333333333OOO++++++%%%%%%***555333333333333333333333333OOO++++++%%%%%%***5553333333333333",
"33333333333XXX@@@+++++++++%%%***333333333333333333333333XXX@@@+++++++++%%%***333333333333333333333333XXX@@@333333333@@@===333333333333333333333333XXX@@@+++++++++%%%***333333333333333333333333XXX@@@333333333@@@===333333333333333333333333XXX@@@+++++++++%%%***333333333333333333333333XXX@@@+++++++++%%%***333333333333333333333333XXX@@@+++++++++%%%***3333333333333",
"33333333333XXX@@@333333333@@@===333333333333333333333333XXX@@@+++++++++%%%***333333333333333333333333XXX@@@333333333@@@===333333333333333333333333XXX@@@+++++++++%%%***333333333333333333333333XXX@@@333333333@@@===333333333333333333333333XXX@@@+++++++++%%%***333333333333333333333333XXX@@@+++++++++%%%***333333333333333333333333XXX@@@+++++++++%%%***3333333333333",
"33333333333XXX@@@333333333@@@===333333333333333333333333XXX@@@+++++++++%%%***333333333333333333333333XXX@@@333333333@@@===333333333333333333333333XXX@@@+++++++++%%%***333333333333333333333333XXX@@@333333333@@@===333333333333333333333333XXX@@@+++++++++%%%***333333333333333333333333XXX@@@+++++++++%%%***333333333333333333333333XXX@@@+++++++++%%%***3333333333333",
"33333333333XXX@@@333333333@@@===333333333333333333333333      333333333   ...333333333333333333333333      333333333   ...333333333333333333333333      333333333   ...333333333333333333333333      333333333   ...333333333333333333333333      333333333   ...333333333333333333333333      333333333   ...333333333333333333333333      333333333   ...3333333333333",
"33333333333      333333333   ...333333333333333333333333      333333333   ...333333333333333333333333      333333333   ...333333333333333333333333      333333333   ...333333333333333333333333      333333333   ...333333333333333333333333      333333333   ...333333333333333333333333      333333333   ...333333333333333333333333      333333333   ...3333333333333",
"33333333333      333333333   ...333333333333333333333333      333333333   ...333333333333333333333333      333333333   ...333333333333333333333333      333333333   ...333333333333333333333333      333333333   ...333333333333333333333333      333333333   ...333333333333333333333333      333333333   ...333333333333333333333333      333333333   ...3333333333333",
"33333333333      333333333   ...333333333333333333333333      333333333   ...333333333333333333333333      333333333   ...333333333333333333333333      333333333   ...333333333333333333333333      333333333   ...333333333333333333333333      333333333   ...333333333333333333333333      333333333   ...333333333333333333333333      333333333   ...3333333333333"
};
