/* XPM */
static char *bea901097d1f4b38fdfc61f8d12f7abejbstWFBV5m04Eitz[] = {
/* columns rows colors chars-per-pixel */
"45 45 5 1 ",
"  c #64390E",
". c #97B11C",
"X c #4E3E89",
"o c #8751C0",
"O c #C382E0",
/* pixels */
".............................................",
".............................................",
".............................................",
".............................................",
".............................................",
".............................................",
".............................................",
".............................................",
".............................................",
".............................................",
".............................................",
"...................  ..      ................",
"...................  ..      ................",
".................  ..  ......  ..............",
".................  ..  ......  ..............",
".....................  XXXX..................",
".....................  XXXX..................",
".................XXXXXXOOooXXXX..............",
".................XXXXXXOOooXXXX..............",
"...............XXOOooXXooooXXOOXX............",
"...............XXOOooXXooooXXOOXX............",
"...............XXooooXXXXXXXXooXX............",
"...............XXooooXXXXXXXXooXX............",
".................XXXXXXXXOOooXX..............",
".................XXXXXXXXOOooXX..............",
".................XXOOooXXooooXX..............",
".................XXOOooXXooooXX..............",
".................XXooooXXXXXX................",
".................XXooooXXXXXX................",
"...................XXXXOOXX..................",
"...................XXXXOOXX..................",
"...................XXooooXX..................",
"...................XXooooXX..................",
".....................XXXX....................",
".....................XXXX....................",
".............................................",
".............................................",
".............................................",
".............................................",
".............................................",
".............................................",
".............................................",
".............................................",
".............................................",
"............................................."
};
