/* XPM */
static char *_43b4b86fc67447783f01bf1dd394868Sf8USBt8arrA77Fh[] = {
/* columns rows colors chars-per-pixel */
"45 45 5 1 ",
"  c gray19",
". c #444444",
"X c #5D5D5D",
"o c gray49",
"O c #939393",
/* pixels */
"OOoooooooooooooooooooooooooooooooooooooooooXX",
"OOoooooooooooooooooooooooooooooooooooooooooXX",
"ooXXXXXXXX.XXXXXXX.XXXXXXX.XXXXXXXX.XXXXXXX..",
"ooXXXXXXXX.XXXXXXX.XXXXXXX.XXXXXXXX.XXXXXXX..",
"ooXXXXXXXX.XXXXXXX.XXXXXXX.XXXXXXXX.XXXXXXX..",
"ooXXXXXXXX.XXXXXXX.XXXXXXX.XXXXXXXX.XXXXXXX..",
"ooXXXXXXXX.XXXXXXX.XXXXXXX.XXXXXXXX.XXXXXXX..",
"oo...........................................",
"ooXXX.XXXXXXX.XXXXXXX.XXXXXXX.XXXXXXX.XXXXX..",
"ooXXX.XXXXXXX.XXXXXXX.XXXXXXX.XXXXXXX.XXXXX..",
"ooXXX.XXXXXXX.XXXXXXX.XXXXXXX.XXXXXXX.XXXXX..",
"ooXXX.XXXXXXX.XXXXXXX.XXXXXXX.XXXXXXX.XXXXX..",
"ooXXX.XXXXXXX.XXXXXXX.XXXXXXX.XXXXXXX.XXXXX..",
"oo...........................................",
"ooXXXXXXXX.XXXXXXX.XXXXXXX.XXXXXXXX.XXXXXXX..",
"ooXXXXXXXX.XXXXXXX.XXXXXXX.XXXXXXXX.XXXXXXX..",
"ooXXXXXXXX.XXXXXXX.XXXXXXX.XXXXXXXX.XXXXXXX..",
"ooXXXXXXXX.XXXXXXX.XXXXXXX.XXXXXXXX.XXXXXXX..",
"ooXXXXXXXX.XXXXXXX.XXXXXXX.XXXXXXXX.XXXXXXX..",
"oo...........................................",
"ooXXX.XXXXXXX.XXXXXXX.XXXXXXX.XXXXXXX.XXXXX..",
"ooXXX.XXXXXXX.XXXXXXX.XXXXXXX.XXXXXXX.XXXXX..",
"ooXXX.XXXXXXX.XXXXXXX.XXXXXXX.XXXXXXX.XXXXX..",
"ooXXX.XXXXXXX.XXXXXXX.XXXXXXX.XXXXXXX.XXXXX..",
"ooXXX.XXXXXXX.XXXXXXX.XXXXXXX.XXXXXXX.XXXXX..",
"oo...........................................",
"ooXXXXXXXX.XXXXXXX.XXXXXXX.XXXXXXXX.XXXXXXX..",
"ooXXXXXXXX.XXXXXXX.XXXXXXX.XXXXXXXX.XXXXXXX..",
"ooXXXXXXXX.XXXXXXX.XXXXXXX.XXXXXXXX.XXXXXXX..",
"ooXXXXXXXX.XXXXXXX.XXXXXXX.XXXXXXXX.XXXXXXX..",
"ooXXXXXXXX.XXXXXXX.XXXXXXX.XXXXXXXX.XXXXXXX..",
"oo...........................................",
"ooXXX.XXXXXXX.XXXXXXX.XXXXXXX.XXXXXXX.XXXXX..",
"ooXXX.XXXXXXX.XXXXXXX.XXXXXXX.XXXXXXX.XXXXX..",
"ooXXX.XXXXXXX.XXXXXXX.XXXXXXX.XXXXXXX.XXXXX..",
"ooXXX.XXXXXXX.XXXXXXX.XXXXXXX.XXXXXXX.XXXXX..",
"ooXXX.XXXXXXX.XXXXXXX.XXXXXXX.XXXXXXX.XXXXX..",
"oo...........................................",
"ooXXXXXXXX.XXXXXXX.XXXXXXX.XXXXXXXX.XXXXXXX..",
"ooXXXXXXXX.XXXXXXX.XXXXXXX.XXXXXXXX.XXXXXXX..",
"ooXXXXXXXX.XXXXXXX.XXXXXXX.XXXXXXXX.XXXXXXX..",
"ooXXXXXXXX.XXXXXXX.XXXXXXX.XXXXXXXX.XXXXXXX..",
"ooXXXXXXXX.XXXXXXX.XXXXXXX.XXXXXXXX.XXXXXXX..",
"XX.........................................  ",
"XX.........................................  "
};
