/* XPM */
static char *bd0c11c455d04775b07f5adad77ba7c3oDlg59iHBkfFwO56[] = {
/* columns rows colors chars-per-pixel */
"45 45 6 1 ",
"  c black",
". c #BF0039",
"X c #FF004D",
"o c #97B11C",
"O c #FFEC27",
"+ c #FF77A8",
/* pixels */
"ooooooooooooooooooooooooooooooooooooooooooooo",
"ooooooooooooooooooooooooooooooooooooooooooooo",
"ooooooooooooooooooooooooooooooooooooooooooooo",
"ooooooooooooooooooooooooooooooooooooooooooooo",
"ooooooooooooooooooooooooooooooooooooooooooooo",
"ooooooooooooooooooooooooooooooooooooooooooooo",
"ooooooooooooooooooooooooooooooooooooooooooooo",
"ooooooooooooooooooooooooooooooooooooooooooooo",
"ooooooooooooooooooooooooooooooooooooooooooooo",
"ooooooooooooooooooooooooooooooooooooooooooooo",
"ooooooooooooooooooooooooooooooooooooooooooooo",
"ooooooooooooooooooooooooooooooooooooooooooooo",
"ooooooooooooooooooooooooooooooooooooooooooooo",
"ooooooooooooooooooooooooooooooooooooooooooooo",
"ooooooooooooooooooooooooooooooooooooooooooooo",
"oooooooooooooo                  ooooooooooooo",
"oooooooooooooo                  ooooooooooooo",
"oooooooooooooo                  ooooooooooooo",
"ooooooooooo   XXXXXXXXXXXX++++++   oooooooooo",
"ooooooooooo   XXXXXXXXXXXX++++++   oooooooooo",
"ooooooooooo   XXXXXXXXXXXX++++++   oooooooooo",
"oooooooo   ...XXXXXXXXXXXXXXX++++++   ooooooo",
"oooooooo   ...XXXXXXXXXXXXXXX++++++   ooooooo",
"oooooooo   ...XXXXXXXXXXXXXXX++++++   ooooooo",
"ooooo   ...XXXXXXXXXXXXXXXXXXXXXXXXXXX   oooo",
"ooooo   ...XXXXXXXXXXXXXXXXXXXXXXXXXXX   oooo",
"ooooo   ...XXXXXXXXXXXXXXXXXXXXXXXXXXX   oooo",
"ooooo   ...XXXXXXXXXOOOXXXXXXXXXXXXOOO   oooo",
"ooooo   ...XXXXXXXXXOOOXXXXXXXXXXXXOOO   oooo",
"ooooo   ...XXXXXXXXXOOOXXXXXXXXXXXXOOO   oooo",
"oo   ......XXXXXXXXXXXXXXXXXXXXXXXXXXXXXX   o",
"oo   ......XXXXXXXXXXXXXXXXXXXXXXXXXXXXXX   o",
"oo   ......XXXXXXXXXXXXXXXXXXXXXXXXXXXXXX   o",
"oo   .........XXXXXXXXXXXXXXX      XXXXXX   o",
"oo   .........XXXXXXXXXXXXXXX      XXXXXX   o",
"oo   .........XXXXXXXXXXXXXXX      XXXXXX   o",
"oo   ............XXXXXXXXXXXXXXXXXXXXX...   o",
"oo   ............XXXXXXXXXXXXXXXXXXXXX...   o",
"oo   ............XXXXXXXXXXXXXXXXXXXXX...   o",
"oo   ...............XXXXXXXXXXXXXXX...      o",
"oo   ...............XXXXXXXXXXXXXXX...      o",
"oo   ...............XXXXXXXXXXXXXXX...      o",
"ooooo                                    oooo",
"ooooo                                    oooo",
"ooooo                                    oooo"
};
