/* XPM */
static char *_2e15ec3d69e43def6c0557c7a16f967uXZzdC82R8lI2aDT[] = {
/* columns rows colors chars-per-pixel */
"45 45 6 1 ",
"  c black",
". c gray7",
"X c gray15",
"o c #434343",
"O c gray35",
"+ c gray45",
/* pixels */
"+++++++++                                    ",
"+++++++++                                    ",
"+++++++++                                    ",
"+++++++++                                    ",
"+++++++++                                    ",
"+++++++++                                    ",
"+++++++++                                    ",
"+++++++++                                    ",
"+++++++++                                    ",
"+++++++++OOOOOOOOO                           ",
"+++++++++OOOOOOOOO                           ",
"+++++++++OOOOOOOOO                           ",
"+++++++++OOOOOOOOO                           ",
"+++++++++OOOOOOOOO                           ",
"+++++++++OOOOOOOOO                           ",
"+++++++++OOOOOOOOO                           ",
"+++++++++OOOOOOOOO                           ",
"+++++++++OOOOOOOOO                           ",
"+++++++++OOOOOOOOOooooooooo                  ",
"+++++++++OOOOOOOOOooooooooo                  ",
"+++++++++OOOOOOOOOooooooooo                  ",
"+++++++++OOOOOOOOOooooooooo                  ",
"+++++++++OOOOOOOOOooooooooo                  ",
"+++++++++OOOOOOOOOooooooooo                  ",
"+++++++++OOOOOOOOOooooooooo                  ",
"+++++++++OOOOOOOOOooooooooo                  ",
"+++++++++OOOOOOOOOooooooooo                  ",
"+++++++++OOOOOOOOOoooooooooXXXXXXXXX         ",
"+++++++++OOOOOOOOOoooooooooXXXXXXXXX         ",
"+++++++++OOOOOOOOOoooooooooXXXXXXXXX         ",
"+++++++++OOOOOOOOOoooooooooXXXXXXXXX         ",
"+++++++++OOOOOOOOOoooooooooXXXXXXXXX         ",
"+++++++++OOOOOOOOOoooooooooXXXXXXXXX         ",
"+++++++++OOOOOOOOOoooooooooXXXXXXXXX         ",
"+++++++++OOOOOOOOOoooooooooXXXXXXXXX         ",
"+++++++++OOOOOOOOOoooooooooXXXXXXXXX         ",
"+++++++++OOOOOOOOOoooooooooXXXXXXXXX.........",
"+++++++++OOOOOOOOOoooooooooXXXXXXXXX.........",
"+++++++++OOOOOOOOOoooooooooXXXXXXXXX.........",
"+++++++++OOOOOOOOOoooooooooXXXXXXXXX.........",
"+++++++++OOOOOOOOOoooooooooXXXXXXXXX.........",
"+++++++++OOOOOOOOOoooooooooXXXXXXXXX.........",
"+++++++++OOOOOOOOOoooooooooXXXXXXXXX.........",
"+++++++++OOOOOOOOOoooooooooXXXXXXXXX.........",
"+++++++++OOOOOOOOOoooooooooXXXXXXXXX........."
};
