/* XPM */
static char *result[] = {
/* columns rows colors chars-per-pixel */
"45 45 133 2 ",
"   c #64390E",
".  c #643910",
"X  c #5F3B2D",
"o  c #67410F",
"O  c #69450F",
"+  c #6D4E11",
"@  c #6F5311",
"#  c #705511",
"$  c #766313",
"%  c #7C7114",
"&  c #6D492F",
"*  c #543D60",
"=  c #747950",
"-  c #5B4A62",
";  c #554177",
":  c #594F79",
">  c #5C527C",
",  c #654979",
"<  c #666366",
"1  c #6A6966",
"2  c #676568",
"3  c #6B696C",
"4  c #6B6171",
"5  c #737171",
"6  c #837F71",
"7  c #7F8946",
"8  c #7E835A",
"9  c #848517",
"0  c #878D17",
"q  c #8A9419",
"w  c #8E9C19",
"e  c #92A51A",
"r  c #95AB1B",
"t  c #97B11C",
"y  c #98B21E",
"u  c #8C9E32",
"i  c #879838",
"p  c #8CA02E",
"a  c #90A52B",
"s  c #97B121",
"d  c #99B223",
"f  c #99B02D",
"g  c #8FA233",
"h  c #98AE35",
"j  c #92A438",
"k  c #9EB530",
"l  c #A4BB39",
"z  c #8D9755",
"x  c #8E965E",
"c  c #91A240",
"v  c #97A25C",
"b  c #888C63",
"n  c #909964",
"m  c #858679",
"M  c #979C76",
"N  c #93977C",
"B  c #4E3E89",
"V  c #513E8B",
"C  c #553D91",
"Z  c #593F93",
"A  c #524484",
"S  c #53438B",
"D  c #5C508B",
"F  c #554490",
"G  c #5B4394",
"H  c #5F4598",
"J  c #62459B",
"K  c #62499B",
"L  c #6A4D9D",
"P  c #635094",
"I  c #695E91",
"U  c #62529C",
"Y  c #6746A1",
"T  c #6C46A4",
"R  c #6648A3",
"E  c #6C49A5",
"W  c #6F47A9",
"Q  c #6E4AA8",
"!  c #724FA2",
"~  c #7145AA",
"^  c #754BAE",
"/  c #6E53A2",
"(  c #7452A4",
")  c #7059A6",
"_  c #7657A8",
"`  c #7B54AD",
"'  c #7D58AB",
"]  c #764AB0",
"[  c #7B4CB4",
"{  c #7F4EB8",
"}  c #7A50B3",
"|  c #7963A1",
" . c #7B6EA8",
".. c #7F61B0",
"X. c #807A94",
"o. c #815AAE",
"O. c #804EB7",
"+. c #824EB9",
"@. c #8154B6",
"#. c #835CB1",
"$. c #8851BD",
"%. c #8777A2",
"&. c #8878AD",
"*. c #9165B5",
"=. c #9163B9",
"-. c #8751C0",
";. c #8A54C1",
":. c #975ECA",
">. c #985FCA",
",. c #9C6AC4",
"<. c #9B63CB",
"1. c #A066C2",
"2. c #A267CD",
"3. c #A46ACB",
"4. c #A86BCE",
"5. c #AA6DD3",
"6. c #AE75D2",
"7. c #B476D4",
"8. c #B37CD6",
"9. c #BA79D6",
"0. c #BC7CDC",
"q. c #BD7EE0",
"w. c #8C8181",
"e. c #989B83",
"r. c #989895",
"t. c #9F9F9A",
"y. c #A0A09D",
"u. c #8F86A3",
"i. c #928AAB",
"p. c #9692A2",
"a. c #BC80DD",
"s. c #C180DF",
"d. c #C382E0",
/* pixels */
"t t t t t t t t t t t t t t t t t t t t t t t t t t t t t t t t t t t t t t t t t t t t t ",
"t t t t t t t t t t t t t t t t t t t t t t t t t t t t t t t t t t t t t t t t t t t t t ",
"t t t t t t t t t t t t t t t t t t t t t t t t t t t t t t t t t t t t t t t t t t t t t ",
"t t t t t t t t t t t t t t t t t t t t t t t t t t t t t t t t t t t t t t t t t t t t t ",
"t t t t t t t t t t t t t t t t t t t t t t t t t t t t t t t t t t t t t t t t t t t t t ",
"t t t t t t t t t t t t t t t w 0 0 e t t w 0 0 0 0 0 0 0 q r t t t t t t t t t t t t t t ",
"t t t t t t t t t t t t t t y #     9 t t %               o e t t t t t t t t t t t t t t ",
"t t t t t t t t t t t t t t y #     9 y t %               o e t t t t t t t t t t t t t t ",
"t t t t t t t t t t t t w w w # @ @ 9 w w % + @ @ + @ + + @ q w w r t t t t t t t t t t t ",
"t t t t t t t t t t t r +     q t t $     % t t t t t t t r O     w t t t t t t t t t t t ",
"t t t t t t t t t t t r +     q t t $ .   % t t t t t t r r O     w t t t t t t t t t t t ",
"t t t t t t t t t t t t @ O O w t t $ o & w.r.r.r.r.e.t t r + O O w t t t t t t t t t t t ",
"t t t t t t t t t t t t r r r r t t $   X ; S S S S > t t t r r r t t t t t t t t t t t t ",
"t t t t t t t t t t t t t t t t t t $ . X ; S B S B > r t t t t t t t t t t t t t t t t t ",
"t t t t t t t t t t t t a 3 2 2 2 2 - * , *.,.,.@.] ! 2 2 2 2 1 i t t t t t t t t t t t t ",
"t t t t t t t t t t t t u F B B B B B B E 6.d.q.<.-.{ B B B B S 7 t t t t t t t t t t t t ",
"t t t t t t t t t t j z b ( ! L H H V B L ,.7.6.<.-.{ B B G ! / 6 z c t t t t t t t t t t ",
"t t t t t t t t t r b P ) 7.9.2.{ { H B H } ;.;.;.-.{ B B ` 7.7...U 5 r t t t t t t t t t ",
"t t t t t t t t t t = B K 0.d.5.;.-.J B G [ -.+.-.-.{ B V o.a.a.) S < t t t t t t t t t t ",
"t t t t t t t t t t = B J 3.4.>.-.-.H B F T W W W W R B B ( 3.3.E B < t t t t t t t t t t ",
"t t t t t t t t t t = B Z +.$.$.-.-.J B B B V B B B B B B Y $.$.H S < t t t t t t t t t t ",
"t t t t t t t t t t = B F $.-.-.-.-.H B B B B B B B B B B Y $.$.H S < t t t t t t t t t t ",
"t t t t t t t t t t v r.u.Q T E E E F B B B B V ! #.#.T T E T Y %.p.M t t t t t t t t t t ",
"t t t t t t t t t t t r u F B B B B B B B B B G 1.d.0.-.$.T S S 7 t t t t t t t t t t t t ",
"t t t t t t t t t t t t u F B B V V V V V V B G 1.d.0.-.+.W V A 7 t y t t t t t t t t t t ",
"t t t t t t t t t t t t u F B L =.=.` W Y V B C $.2.2.-.-.W V S 7 t t t t t t t t t t t t ",
"t t t t t t t t t t t t u F B ' 9.s.>.$.[ Z B C [ -.-.-.$.~ V A 7 y t t t t t t t t t t t ",
"t t t t t t t t t t t t u F B ' 0.0.>.-.[ Z B C W +.+.O.@.^ U I g s t t t t t t t t t t t ",
"t t t t t t t t t t t t u S V E :.>.;.;.[ Z B B G G G G G &.x j t t t t t t t t t t t t t ",
"t t t t t t t t t t t t u F B Y +.-.-.-.[ Z B B B B B S B i.k r t t t t t t t t t t t t t ",
"t t t t t t t t t t t t a 3 2 | ] ] [ ] ^ ( _ / F B A 2 2 N f r t t t t t t t t t t t t t ",
"t t t t t t t t t t t t t t t t.S B B V L 6.s.8.) B : r t t t t t t t t t t t t t t t t t ",
"t t t t t t t t t t t t t t t t.S B S B L 6.d.a.) B : r t t t t t t t t t t t t t t t t t ",
"t t t t t t t t t t t t t t t t.S B J T ` <.<.<.U S : t t t t t t t t t t t t t t t t t t ",
"t t t t t t t t t t t t t t t t.F S ^ -.-.-.-.{ H B : t t t t t t t t t t t t t t t t t t ",
"t t t t t t t t t t t t t t t y.F V ] +.-.-.-.{ K F : t t t t t t t t t t t t t t t t t t ",
"t t t t t t t t t t t t t t t h g u 4 G C F G P 8 c p t t t t t t t t t t t t t t t t t t ",
"t t t t t t t t t t t t t t t t t t 2 B B B S D n s t t t t t t t t t t t t t t t t t t t ",
"t t t t t t t t t t t t t t t t t t m  . . . .X.c t t t t t t t t t t t t t t t t t t t t ",
"t t t t t t t t t t t t t t t t y l f f d s s t s s t t t t t t t t t t t t t t t t t t t ",
"t t t t t t t t t t t t t t t d d y t t t t t t t t t t t t t t t t t t t t t t t t t t t ",
"t t t t t t t t t t t t t t d t t t t t t t t t t t t t t t t t t t t t t t t t t t t t t ",
"t t t t t t t t t t t t t t t t t t t t t t t t t t t t t t t t t t t t t t t t t t t t t ",
"t t t t t t t t t t t t t t t t t t t t t t t t t t t t t t t t t t t t t t t t t t t t t ",
"t t t t t t t t t t t t t t t t t t t t t t t t t t t t t t t t t t t t t t t t t t t t t "
};
