/* XPM */
static char *ecc99425ffcf4a77d1b5118422715fc8rEc41cXk381fwDUs[] = {
/* columns rows colors chars-per-pixel */
"45 45 7 1 ",
"  c #2F2B53",
". c #352B53",
"X c #AE2553",
"o c #FF004D",
"O c #9BB11C",
"+ c #FFEC27",
"@ c #FF77A8",
/* pixels */
"OOOOOOOOOOOOOOOOOOOOOOOOOOOOOOOOOOOOOOOOOOOOO",
"OOOOOOOOOOOOOOOOOOOOOOOOOOOOOOOOOOOOOOOOOOOOO",
"OOOOOOOOOOOOOOOOOOOOOOOOOOOOOOOOOOOOOOOOOOOOO",
"OOOOOOOOOOOOOOOOOOOOOOOOOOOOOOOOOOOOOOOOOOOOO",
"OOOOOOOOOOOOOOOOOOOOOOOOOOOOOOOOOOOOOOOOOOOOO",
"OOOOOOOOOOOOOOOOOOOOOOOOOOOOOOOOOOOOOOOOOOOOO",
"OOOOOOOOOOOOOOOOOOOOOOOOOOOOOOOOOOOOOOOOOOOOO",
"OOOOOOOOOOOOOOOOOOOOOOOOOOOOOOOOOOOOOOOOOOOOO",
"OOOOOOOOOOOOOOOOOOOOOOOOOOOOOOOOOOOOOOOOOOOOO",
"OOOOOOOOOOOOOOOOOOOOOOOOOOOOOOOOOOOOOOOOOOOOO",
"OOOOOOOOOOOOOOOOOOOOOOOOOOOOOOOOOOOOOOOOOOOOO",
"OOOOOOOOOOOOOOOOOOOOOOOOOOOOOOOOOOOOOOOOOOOOO",
"OOOOOOOOOOOOOOOOOOOOOOOOOOOOOOOOOOOOOOOOOOOOO",
"OOOOOOOOOOOOOOOOOOOOOOOOOOOOOOOOOOOOOOOOOOOOO",
"OOOOOOOOOOOOOOOOOOOOOOOOOOOOOOOOOOOOOOOOOOOOO",
"OOOOOOOOOOOOOO...               OOOOOOOOOOOOO",
"OOOOOOOOOOOOOO. .               OOOOOOOOOOOOO",
"OOOOOOOOOOOOOO...               OOOOOOOOOOOOO",
"OOOOOOOOOOO...oooooooooooo@@@@@@   OOOOOOOOOO",
"OOOOOOOOOOO. .oooooooooooo@@@@@@   OOOOOOOOOO",
"OOOOOOOOOOO...oooooooooooo@@@@@@   OOOOOOOOOO",
"OOOOOOOO...XXXooooooooooooooo@@@@@@   OOOOOOO",
"OOOOOOOO. .XXXooooooooooooooo@@@@@@   OOOOOOO",
"OOOOOOOO...XXXooooooooooooooo@@@@@@   OOOOOOO",
"OOOOO...XXXooooooooooooooooooooooooooo   OOOO",
"OOOOO. .XXXooooooooooooooooooooooooooo   OOOO",
"OOOOO. .XXXooooooooooooooooooooooooooo   OOOO",
"OOOOO. .XXXooooooooo+++oooooooooooo+++   OOOO",
"OOOOO. .XXXooooooooo+++oooooooooooo+++   OOOO",
"OOOOO...XXXooooooooo+++oooooooooooo+++   OOOO",
"OO. .XXXXXXoooooooooooooooooooooooooooooo  .O",
"OO  .XXXXXXoooooooooooooooooooooooooooooo  .O",
"OO ..XXXXXXoooooooooooooooooooooooooooooo  .O",
"OO ..XXXXXXXXXooooooooooooooo      oooooo.  O",
"OO  .XXXXXXXXXooooooooooooooo      oooooo.  O",
"OO  .XXXXXXXXXooooooooooooooo      oooooo.  O",
"OO  .XXXXXXXXXXXXoooooooooooooooooooooXXX  .O",
"OO  .XXXXXXXXXXXXoooooooooooooooooooooXXX  .O",
"OO  .XXXXXXXXXXXXoooooooooooooooooooooXXX  .O",
"OO. .XXXXXXXXXXXXXXXoooooooooooooooXXX.... .O",
"OO. .XXXXXXXXXXXXXXXoooooooooooooooXXX. .. .O",
"OO...XXXXXXXXXXXXXXXoooooooooooooooXXX. ....O",
"OOOOO......    ..........................OOOO",
"OOOOO.       .                          .OOOO",
"OOOOO....................................OOOO"
};
